<svg width="15" height="10" viewBox="0 0 15 10" fill="none" xmlns="http://www.w3.org/2000/svg">
<g id="Group">
<g id="Group_2">
<path id="Vector" fill-rule="evenodd" clip-rule="evenodd" d="M0.863031 0H14.137C14.6117 0 15 0.359913 15 0.799721V9.20028C15 9.64009 14.6116 10 14.137 10H0.863031C0.388406 10 0 9.64015 0 9.20028V0.799721C0 0.359884 0.388344 0 0.863031 0Z" fill="#F4F6F8"/>
<path id="Vector_2" fill-rule="evenodd" clip-rule="evenodd" d="M0.863031 0H4.69747C4.78353 0 4.85372 0.0650387 4.85372 0.144788V4.35287C4.85372 4.43262 4.78353 4.49766 4.69747 4.49766H0.15625C0.114835 4.49758 0.0751404 4.4823 0.0458558 4.45517C0.0165711 4.42803 8.25819e-05 4.39125 0 4.35287V0.799721C0 0.359884 0.388344 0 0.863031 0Z" fill="#38A8D2"/>
<path id="Vector_3" fill-rule="evenodd" clip-rule="evenodd" d="M1.56299 1.50357C1.56299 1.94572 1.9498 2.30413 2.42693 2.30413C2.90408 2.30413 3.29086 1.94572 3.29086 1.50357C3.29086 1.06153 2.90408 0.703125 2.42693 0.703125C1.94977 0.703125 1.56299 1.06153 1.56299 1.50357Z" fill="#EFC7A4"/>
<path id="Vector_4" fill-rule="evenodd" clip-rule="evenodd" d="M4.29615 4.49772H0.557617C0.557617 3.54114 1.39462 2.76562 2.42696 2.76562C3.4593 2.76562 4.29615 3.54114 4.29615 4.49772Z" fill="#C6EA94"/>
<path id="Vector_5" fill-rule="evenodd" clip-rule="evenodd" d="M1.57104 6.51542C1.51303 6.51542 1.45739 6.49406 1.41637 6.45605C1.37534 6.41803 1.35229 6.36648 1.35229 6.31272C1.35229 6.25896 1.37534 6.2074 1.41637 6.16938C1.45739 6.13137 1.51303 6.11001 1.57104 6.11001H13.4288C13.4868 6.11001 13.5425 6.13137 13.5835 6.16938C13.6245 6.2074 13.6475 6.25896 13.6475 6.31272C13.6475 6.36648 13.6245 6.41803 13.5835 6.45605C13.5425 6.49406 13.4868 6.51542 13.4288 6.51542H1.57104ZM6.42476 1.79945C6.36675 1.79945 6.31111 1.77809 6.27008 1.74008C6.22906 1.70206 6.20601 1.65051 6.20601 1.59675C6.20601 1.54299 6.22906 1.49143 6.27008 1.45341C6.31111 1.4154 6.36675 1.39404 6.42476 1.39404H13.4288C13.4868 1.39404 13.5425 1.4154 13.5835 1.45341C13.6245 1.49143 13.6475 1.54299 13.6475 1.59675C13.6475 1.65051 13.6245 1.70206 13.5835 1.74008C13.5425 1.77809 13.4868 1.79945 13.4288 1.79945H6.42476ZM6.42476 3.10315C6.36675 3.10315 6.31111 3.08179 6.27008 3.04378C6.22906 3.00576 6.20601 2.9542 6.20601 2.90044C6.20601 2.84668 6.22906 2.79513 6.27008 2.75711C6.31111 2.7191 6.36675 2.69774 6.42476 2.69774H13.4288C13.4868 2.69774 13.5425 2.7191 13.5835 2.75711C13.6245 2.79513 13.6475 2.84668 13.6475 2.90044C13.6475 2.9542 13.6245 3.00576 13.5835 3.04378C13.5425 3.08179 13.4868 3.10315 13.4288 3.10315H6.42476ZM1.57104 7.81912C1.51303 7.81912 1.45739 7.79776 1.41637 7.75975C1.37534 7.72173 1.35229 7.67017 1.35229 7.61641C1.35229 7.56265 1.37534 7.5111 1.41637 7.47308C1.45739 7.43507 1.51303 7.41371 1.57104 7.41371H13.4288C13.4868 7.41371 13.5425 7.43507 13.5835 7.47308C13.6245 7.5111 13.6475 7.56265 13.6475 7.61641C13.6475 7.67017 13.6245 7.72173 13.5835 7.75975C13.5425 7.79776 13.4868 7.81912 13.4288 7.81912H1.57104Z" fill="#C7E0EC"/>
</g>
</g>
</svg>
