<svg width="16" height="16" viewBox="0 0 16 16" fill="none" xmlns="http://www.w3.org/2000/svg">
<g id="Group">
<path id="Vector" fill-rule="evenodd" clip-rule="evenodd" d="M12.4881 10.8792L13.8582 12.2493C14.3191 12.7102 14.3191 13.4621 13.8582 13.923L12.2296 15.5516C11.7785 16.0027 11.1308 16.1242 10.547 15.8671C5.89792 13.8197 2.18028 10.1021 0.13292 5.45302C-0.124153 4.86928 -0.00268258 4.22152 0.448341 3.77049L2.07703 2.1418C2.53793 1.6809 3.28979 1.6809 3.75069 2.1418L5.12082 3.51193C5.58171 3.97283 5.58165 4.72475 5.12082 5.18558L3.90049 6.40591C5.4002 8.66406 7.33596 10.5998 9.59411 12.0995L10.8144 10.8792C11.2753 10.4184 12.0272 10.4183 12.4881 10.8792L12.4881 10.8792ZM10.7475 8.33397C10.9717 8.33397 11.1536 8.15214 11.1536 7.92788C11.1536 6.22862 9.7712 4.84606 8.07181 4.84606C7.84771 4.84606 7.66572 5.02805 7.66572 5.25215C7.66572 5.47625 7.84771 5.65824 8.07181 5.65824C9.32316 5.65824 10.3415 6.6764 10.3415 7.92788C10.3415 8.15214 10.5233 8.33397 10.7475 8.33397ZM13.1603 8.33397C12.9357 8.33397 12.7542 8.15214 12.7542 7.92788C12.7542 5.34597 10.6536 3.24563 8.07181 3.24563C7.84771 3.24563 7.66572 3.06379 7.66572 2.83953C7.66572 2.61527 7.84771 2.43344 8.07181 2.43344C11.1017 2.43344 13.5664 4.8982 13.5664 7.92788C13.5664 8.15214 13.3844 8.33397 13.1603 8.33397ZM15.1875 7.92788C15.1875 4.00411 11.9956 0.812024 8.07181 0.812024C7.84771 0.812024 7.66572 0.630354 7.66572 0.405931C7.66572 0.181507 7.84771 0 8.07181 0C10.1894 0 12.1806 0.824564 13.6778 2.32194C15.175 3.81932 16.0003 5.81035 16.0003 7.92791C16.0003 8.15217 15.8187 8.33401 15.5931 8.33401C15.3692 8.33401 15.1875 8.15217 15.1875 7.92791V7.92788Z" fill="url(#paint0_linear_1031_4588)"/>
</g>
<defs>
<linearGradient id="paint0_linear_1031_4588" x1="8.00018" y1="16" x2="8.00018" y2="-3.24251e-05" gradientUnits="userSpaceOnUse">
<stop stop-color="#1751FF"/>
<stop offset="1" stop-color="#17A0FF"/>
</linearGradient>
</defs>
</svg>
