<svg width="16" height="12" viewBox="0 0 16 12" fill="none" xmlns="http://www.w3.org/2000/svg">
<g id="Group">
<path id="Vector" d="M15.6134 10.733C15.457 10.9207 15.2613 11.0717 15.0401 11.1754C14.819 11.2791 14.5777 11.3329 14.3334 11.333H1.66672C1.42243 11.3329 1.18115 11.2791 0.959953 11.1754C0.738759 11.0717 0.543063 10.9207 0.386719 10.733L6.50005 5.63965L7.1334 6.07299C7.65511 6.43299 8.34502 6.43299 8.86674 6.07299L9.50008 5.63965L15.6134 10.733Z" fill="#1E88E5"/>
<path id="Vector_2" d="M15.7067 1.39321L9.5001 5.63986L8.86676 6.07321C8.34504 6.43321 7.65513 6.43321 7.13342 6.07321L6.50007 5.63986L0.293457 1.38653C0.447328 1.16465 0.652589 0.983285 0.891729 0.857912C1.13087 0.732539 1.39679 0.666876 1.6668 0.666527H14.3334C14.6045 0.665094 14.8717 0.730686 15.1113 0.857468C15.3509 0.98425 15.5555 1.16829 15.7067 1.39321Z" fill="#64B5F6"/>
<path id="Vector_3" d="M6.50001 5.64002L0.386684 10.7333C0.136459 10.4343 -0.000434857 10.0566 2.93098e-05 9.66669V2.33337C-0.00199077 1.99514 0.100455 1.66454 0.293372 1.38672L6.50001 5.64002ZM16 2.33337V9.66669C16.0004 10.0566 15.8635 10.4343 15.6133 10.7333L9.5 5.64002L15.7066 1.39337C15.8986 1.66918 16.001 1.99736 16 2.33337Z" fill="#2196F3"/>
</g>
</svg>
