<svg width="14" height="14" viewBox="0 0 14 14" fill="none" xmlns="http://www.w3.org/2000/svg">
<g id="Group">
<g id="Layer 2">
<g id="Layer 1">
<g id="6">
<path id="Vector" d="M11.8614 1.06641H2.13855C0.957464 1.06641 0 2.02387 0 3.20496V11.8614C0 13.0425 0.957464 14 2.13855 14H11.8614C13.0425 14 14 13.0425 14 11.8614V3.20496C14 2.02387 13.0425 1.06641 11.8614 1.06641Z" fill="#212E3D"/>
<path id="Vector_2" d="M11.8614 1.06641H2.13855C0.957464 1.06641 0 2.02387 0 3.20496V11.5607C0 12.7418 0.957464 13.6992 2.13855 13.6992H11.8614C13.0425 13.6992 14 12.7418 14 11.5607V3.20496C14 2.02387 13.0425 1.06641 11.8614 1.06641Z" fill="#F2F2F2"/>
<path id="Vector_3" d="M2.13855 1.06641H11.8614C12.1423 1.06641 12.4204 1.12172 12.6798 1.22919C12.9393 1.33667 13.175 1.49419 13.3736 1.69277C13.5722 1.89136 13.7297 2.12711 13.8372 2.38657C13.9447 2.64603 14 2.92412 14 3.20496V3.88855C14 3.89428 13.9977 3.89978 13.9937 3.90383C13.9896 3.90788 13.9841 3.91016 13.9784 3.91016H0.0216016C0.0158725 3.91016 0.010378 3.90788 0.00632695 3.90383C0.00227587 3.89978 0 3.89428 0 3.88855L0 3.20496C0 2.63778 0.225311 2.09383 0.626368 1.69277C1.02742 1.29172 1.57137 1.06641 2.13855 1.06641Z" fill="#212E3D"/>
<path id="Vector_4" d="M2.13855 1.06641H11.8614C12.1423 1.06641 12.4204 1.12172 12.6798 1.22919C12.9393 1.33667 13.175 1.49419 13.3736 1.69277C13.5722 1.89136 13.7297 2.12711 13.8372 2.38657C13.9447 2.64603 14 2.92412 14 3.20496V3.64656C14 3.65229 13.9977 3.65779 13.9937 3.66184C13.9896 3.66589 13.9841 3.66816 13.9784 3.66816H0.0216016C0.0158725 3.66816 0.010378 3.66589 0.00632695 3.66184C0.00227587 3.65779 0 3.65229 0 3.64656L0 3.20496C0 2.63778 0.225311 2.09383 0.626368 1.69277C1.02742 1.29172 1.57137 1.06641 2.13855 1.06641Z" fill="#293255"/>
<path id="Vector_5" d="M2.50195 2.37891C2.78133 2.37891 3.00781 2.15243 3.00781 1.87305C3.00781 1.59367 2.78133 1.36719 2.50195 1.36719C2.22257 1.36719 1.99609 1.59367 1.99609 1.87305C1.99609 2.15243 2.22257 2.37891 2.50195 2.37891Z" fill="#F2F2F2"/>
<path id="Vector_6" d="M7 2.37891C7.27938 2.37891 7.50586 2.15243 7.50586 1.87305C7.50586 1.59367 7.27938 1.36719 7 1.36719C6.72062 1.36719 6.49414 1.59367 6.49414 1.87305C6.49414 2.15243 6.72062 2.37891 7 2.37891Z" fill="#F2F2F2"/>
<path id="Vector_7" d="M11.3887 2.37891C11.6681 2.37891 11.8945 2.15243 11.8945 1.87305C11.8945 1.59367 11.6681 1.36719 11.3887 1.36719C11.1093 1.36719 10.8828 1.59367 10.8828 1.87305C10.8828 2.15243 11.1093 2.37891 11.3887 2.37891Z" fill="#F2F2F2"/>
<g id="Group_2">
<path id="Vector_8" d="M2.85742 0.355469C2.85742 0.159149 2.69827 0 2.50195 0C2.30563 0 2.14648 0.159149 2.14648 0.355469V1.69531C2.14648 1.89163 2.30563 2.05078 2.50195 2.05078C2.69827 2.05078 2.85742 1.89163 2.85742 1.69531V0.355469Z" fill="#212E3D"/>
<path id="Vector_9" d="M7.35547 0.355469C7.35547 0.159149 7.19632 0 7 0C6.80368 0 6.64453 0.159149 6.64453 0.355469V1.69531C6.64453 1.89163 6.80368 2.05078 7 2.05078C7.19632 2.05078 7.35547 1.89163 7.35547 1.69531V0.355469Z" fill="#212E3D"/>
<path id="Vector_10" d="M11.7441 0.355469C11.7441 0.159149 11.585 0 11.3887 0C11.1924 0 11.0332 0.159149 11.0332 0.355469V1.69531C11.0332 1.89163 11.1924 2.05078 11.3887 2.05078C11.585 2.05078 11.7441 1.89163 11.7441 1.69531V0.355469Z" fill="#212E3D"/>
</g>
</g>
</g>
</g>
</g>
</svg>
