<svg width="55" height="55" viewBox="0 0 55 55" fill="none" xmlns="http://www.w3.org/2000/svg">
<g id="Group 101174">
<path id="Ellipse 466" d="M27.5 55C42.6878 55 55 42.6878 55 27.5C55 12.3122 42.6878 0 27.5 0C12.3122 0 0 12.3122 0 27.5C0 42.6878 12.3122 55 27.5 55Z" fill="#F6F6F6"/>
<g id="Group">
<path id="Vector" d="M38.505 16.455C35.56 13.6081 31.685 12 27.5581 12C15.7135 12 8.27612 24.8327 14.1907 35.0407L12 43L20.1827 40.8662C23.7477 42.792 26.6682 42.6215 27.5659 42.7352C41.3002 42.7352 48.137 26.1192 38.4856 16.5053L38.505 16.455Z" fill="white"/>
<path id="Vector_2" d="M27.5868 40.0952L27.579 40.0939H27.5583C23.4483 40.0939 20.8223 38.1474 20.564 38.035L15.7202 39.2944L17.0183 34.5862L16.7096 34.1019C15.4293 32.0671 14.7505 29.7118 14.7515 27.3077C14.7515 15.9501 28.6304 10.2706 36.662 18.2983C44.6742 26.2421 39.049 40.0952 27.5868 40.0952Z" fill="#4CAF50"/>
<path id="Vector_3" d="M34.6131 30.4798L34.6015 30.5767C34.2127 30.3829 32.3191 29.4568 31.9665 29.3289C31.1747 29.0357 31.3982 29.2824 29.8779 31.0236C29.6519 31.2755 29.4271 31.2949 29.0435 31.1205C28.656 30.9267 27.4121 30.5198 25.9396 29.2023C24.7926 28.1755 24.0228 26.9161 23.7954 26.5286C23.417 25.875 24.2088 25.782 24.9295 24.418C25.0587 24.1468 24.9928 23.9336 24.8972 23.7412C24.8004 23.5474 24.0292 21.6487 23.7063 20.8918C23.3963 20.1374 23.0773 20.233 22.8383 20.233C22.0943 20.1684 21.5505 20.1788 21.0713 20.6774C18.9866 22.9688 19.5123 25.3325 21.2961 27.8461C24.8016 32.4341 26.6694 33.2789 30.0846 34.4517C31.0068 34.7449 31.8477 34.7036 32.5129 34.608C33.2543 34.4904 34.7953 33.6767 35.1169 32.7661C35.4463 31.8554 35.4463 31.0998 35.3494 30.9254C35.2538 30.7511 35.0006 30.6542 34.6131 30.4798Z" fill="#FAFAFA"/>
</g>
</g>
</svg>
