<svg width="55" height="55" viewBox="0 0 55 55" fill="none" xmlns="http://www.w3.org/2000/svg">
<g id="Group 66979">
<g id="Group 490">
<path id="Path 30029" d="M27.5 0C32.939 0 38.2558 1.61285 42.7782 4.63458C47.3005 7.65632 50.8253 11.9512 52.9067 16.9762C54.9881 22.0012 55.5327 27.5305 54.4716 32.865C53.4105 38.1994 50.7914 43.0995 46.9454 46.9454C43.0995 50.7914 38.1994 53.4105 32.865 54.4716C27.5305 55.5327 22.0012 54.9881 16.9762 52.9067C11.9512 50.8253 7.65632 47.3005 4.63458 42.7782C1.61285 38.2558 0 32.939 0 27.5C0 20.2065 2.89731 13.2118 8.05456 8.05456C13.2118 2.89731 20.2065 0 27.5 0Z" fill="#F6F6F6"/>
</g>
<g id="callus">
<g id="Group 497">
<path id="Path 916" fill-rule="evenodd" clip-rule="evenodd" d="M17.2176 12.6817C20.7979 9.38434 26.4522 18.0475 23.8135 20.4085L22.2118 21.9163C20.421 23.518 30.4095 34.4482 32.2004 32.7526L33.8021 31.2448C36.3509 28.8892 44.4493 35.296 40.8689 38.5947L38.5133 40.7625C31.4465 47.3571 7.60733 21.3515 14.866 14.8495L17.2176 12.6817Z" fill="#FF7E68"/>
</g>
</g>
</g>
</svg>
