<svg width="40" height="37" viewBox="0 0 40 37" fill="none" xmlns="http://www.w3.org/2000/svg">
<g id="contact">
<path id="Rectangle 30463" opacity="0.8" d="M32 0H8C3.58172 0 0 3.31309 0 7.4V29.6C0 33.6869 3.58172 37 8 37H32C36.4183 37 40 33.6869 40 29.6V7.4C40 3.31309 36.4183 0 32 0Z" fill="#F5F5F5"/>
<g id="contact_2">
<path id="Path 38126" d="M29.3519 24.3939C29.3169 24.3649 25.3209 21.5179 24.2419 21.6939C23.7219 21.7859 23.4239 22.1409 22.8279 22.8519C22.7279 22.9669 22.5009 23.2409 22.3219 23.4359C21.945 23.313 21.5774 23.1633 21.2219 22.9879C19.3867 22.0945 17.9037 20.6119 17.0099 18.7769C16.8345 18.4214 16.6848 18.0538 16.5619 17.6769C16.7619 17.4979 17.0319 17.2659 17.1499 17.1679C17.8569 16.5749 18.2119 16.2769 18.3039 15.7559C18.4929 14.6769 15.6349 10.6829 15.6039 10.6469C15.474 10.4623 15.3047 10.3089 15.1082 10.1977C14.9118 10.0865 14.6931 10.0203 14.4679 10.0039C13.3099 10.0039 10.0029 14.2929 10.0029 15.0159C10.0029 15.0579 10.0639 19.3259 15.3259 24.6789C20.6729 29.9359 24.9409 29.9959 24.9829 29.9959C25.7049 29.9959 29.9949 26.6889 29.9949 25.5309C29.9785 25.3056 29.9123 25.0868 29.8011 24.8902C29.69 24.6936 29.5365 24.5241 29.3519 24.3939ZM24.9089 28.6589C24.3309 28.6099 20.7449 28.1369 16.2669 23.7379C11.8469 19.2379 11.3859 15.6459 11.3399 15.0899C12.2138 13.7191 13.269 12.4728 14.4769 11.3849C14.5039 11.4119 14.5389 11.4519 14.5839 11.5039C15.5102 12.7681 16.3081 14.1214 16.9659 15.5439C16.7521 15.759 16.526 15.9617 16.2889 16.1509C15.921 16.4312 15.5832 16.7489 15.2809 17.0989C15.2298 17.1706 15.1934 17.2517 15.1739 17.3375C15.1543 17.4233 15.1519 17.5122 15.1669 17.5989C15.3079 18.2098 15.5239 18.801 15.8099 19.3589C16.8348 21.4633 18.5354 23.1634 20.6399 24.1879C21.1977 24.4745 21.7889 24.6908 22.3999 24.8319C22.4867 24.8469 22.5755 24.8445 22.6613 24.825C22.7472 24.8054 22.8283 24.769 22.8999 24.7179C23.2511 24.4144 23.5698 24.0752 23.8509 23.7059C24.0599 23.4569 24.3389 23.1239 24.4449 23.0299C25.8711 23.6868 27.2276 24.4855 28.4939 25.4139C28.5489 25.4609 28.5889 25.4969 28.6149 25.5199C27.5265 26.7281 26.2795 27.7833 24.9079 28.6569L24.9089 28.6589Z" fill="#8A8A8A"/>
<path id="Path 38127" d="M20.6645 15.335C21.7254 15.335 22.7428 15.7564 23.493 16.5065C24.2431 17.2567 24.6645 18.2741 24.6645 19.335C24.6645 19.5117 24.7348 19.6812 24.8598 19.8062C24.9848 19.9312 25.1543 20.0015 25.331 20.0015C25.5078 20.0015 25.6773 19.9312 25.8023 19.8062C25.9273 19.6812 25.9975 19.5117 25.9975 19.335C25.9965 17.9209 25.4343 16.565 24.4344 15.5651C23.4345 14.5652 22.0786 14.003 20.6645 14.002C20.4878 14.002 20.3183 14.0722 20.1933 14.1972C20.0683 14.3222 19.998 14.4917 19.998 14.6685C19.998 14.8452 20.0683 15.0147 20.1933 15.1397C20.3183 15.2647 20.4878 15.335 20.6645 15.335Z" fill="#8A8A8A"/>
<path id="Path 38128" d="M20.6645 12.0029C22.6085 12.0042 24.4726 12.7768 25.8476 14.151C27.2226 15.5253 27.9962 17.3889 27.9985 19.3329C27.9985 19.5097 28.0688 19.6792 28.1938 19.8042C28.3188 19.9292 28.4883 19.9994 28.665 19.9994C28.8418 19.9994 29.0113 19.9292 29.1363 19.8042C29.2613 19.6792 29.3315 19.5097 29.3315 19.3329C29.3289 17.0355 28.4148 14.8329 26.7899 13.2088C25.165 11.5846 22.962 10.6715 20.6645 10.6699C20.577 10.6699 20.4904 10.6872 20.4095 10.7207C20.3286 10.7542 20.2552 10.8032 20.1933 10.8651C20.1314 10.927 20.0823 11.0005 20.0488 11.0814C20.0153 11.1622 19.998 11.2489 19.998 11.3364C19.998 11.4239 20.0153 11.5106 20.0488 11.5915C20.0823 11.6723 20.1314 11.7458 20.1933 11.8077C20.2552 11.8696 20.3286 11.9187 20.4095 11.9522C20.4904 11.9857 20.577 12.0029 20.6645 12.0029Z" fill="#8A8A8A"/>
</g>
</g>
</svg>
