<svg width="33" height="33" viewBox="0 0 33 33" fill="none" xmlns="http://www.w3.org/2000/svg">
<g id="Group">
<path id="Vector" fill-rule="evenodd" clip-rule="evenodd" d="M2.27911 7.21719C2.27911 5.90753 2.79937 4.65151 3.72544 3.72544C4.65151 2.79937 5.90753 2.27911 7.21719 2.27911H19.3725C19.6747 2.27911 19.9645 2.15905 20.1783 1.94535C20.392 1.73164 20.512 1.44179 20.512 1.13956C20.512 0.837328 20.392 0.547477 20.1783 0.333769C19.9645 0.12006 19.6747 0 19.3725 0H7.21719C5.30307 0 3.46735 0.760381 2.11387 2.11387C0.760381 3.46735 0 5.30307 0 7.21719V25.4501C0 27.3642 0.760381 29.1999 2.11387 30.5534C3.46735 31.9069 5.30307 32.6673 7.21719 32.6673H25.4501C27.3642 32.6673 29.1999 31.9069 30.5534 30.5534C31.9069 29.1999 32.6673 27.3642 32.6673 25.4501V13.2948C32.6673 12.9926 32.5472 12.7028 32.3335 12.489C32.1198 12.2753 31.83 12.1553 31.5277 12.1553C31.2255 12.1553 30.9357 12.2753 30.722 12.489C30.5082 12.7028 30.3882 12.9926 30.3882 13.2948V18.628C30.3196 18.5722 30.2486 18.5195 30.1755 18.4699L26.5578 16.0586C25.3886 15.279 23.9854 14.9286 22.5869 15.0672C21.1885 15.2057 19.8813 15.8245 18.8878 16.8183L13.781 21.9251C12.7876 22.9185 11.4807 23.5371 10.0826 23.6756C8.68452 23.8141 7.28162 23.464 6.11258 22.6848L2.27911 20.1322V7.21719ZM28.1091 1.13956C28.1091 0.837328 27.989 0.547477 27.7753 0.333769C27.5616 0.12006 27.2717 0 26.9695 0C26.6673 0 26.3774 0.12006 26.1637 0.333769C25.95 0.547477 25.83 0.837328 25.83 1.13956V4.55823H22.4113C22.1091 4.55823 21.8192 4.67829 21.6055 4.892C21.3918 5.1057 21.2717 5.39556 21.2717 5.69778C21.2717 6.00001 21.3918 6.28986 21.6055 6.50357C21.8192 6.71728 22.1091 6.83734 22.4113 6.83734H25.83V10.256C25.83 10.5582 25.95 10.8481 26.1637 11.0618C26.3774 11.2755 26.6673 11.3956 26.9695 11.3956C27.2717 11.3956 27.5616 11.2755 27.7753 11.0618C27.989 10.8481 28.1091 10.5582 28.1091 10.256V6.83734H31.5277C31.83 6.83734 32.1198 6.71728 32.3335 6.50357C32.5472 6.28986 32.6673 6.00001 32.6673 5.69778C32.6673 5.39556 32.5472 5.1057 32.3335 4.892C32.1198 4.67829 31.83 4.55823 31.5277 4.55823H28.1091V1.13956ZM11.0157 14.8142C12.0231 14.8142 12.9893 14.414 13.7017 13.7017C14.414 12.9893 14.8142 12.0231 14.8142 11.0157C14.8142 10.0083 14.414 9.04212 13.7017 8.32975C12.9893 7.61739 12.0231 7.21719 11.0157 7.21719C10.0083 7.21719 9.04212 7.61739 8.32975 8.32975C7.61739 9.04212 7.21719 10.0083 7.21719 11.0157C7.21719 12.0231 7.61739 12.9893 8.32975 13.7017C9.04212 14.414 10.0083 14.8142 11.0157 14.8142Z" fill="#919191"/>
</g>
</svg>
