<svg width="25" height="28" viewBox="0 0 25 28" fill="none" xmlns="http://www.w3.org/2000/svg">
<g id="Group">
<path id="Vector" d="M3.12503 18.0645H2.23213C0.999348 18.0645 0 17.0536 0 15.8065C0 15.0583 0.599631 14.4517 1.33928 14.4517H3.12498L3.12503 18.0645Z" fill="#E62121"/>
<path id="Vector_2" d="M20.0893 0H3.5714L3.11157 0.903219V27.5625H24.1071L25 27.0968V4.96776L20.0893 0Z" fill="#FCFCFC"/>
<path id="Vector_3" d="M3.57132 25.742V0C3.07824 0 2.67847 0.404359 2.67847 0.903219V27.0968C2.67847 27.5956 3.07824 28 3.57132 28H24.107C24.6001 28 24.9999 27.5956 24.9999 27.0968H4.91059C4.17089 27.0968 3.57132 26.4902 3.57132 25.742ZM24.9999 4.89021C24.9999 4.65068 24.9058 4.42094 24.7384 4.25152L20.797 0.264523C20.6295 0.0951533 20.4024 2.19261e-06 20.1657 0L20.0892 0V4.51615C20.0892 4.63592 20.1362 4.75079 20.2199 4.83548C20.3036 4.92018 20.4172 4.96776 20.5356 4.96776H24.9999V4.89021Z" fill="#DAD8DB"/>
<path id="Vector_4" d="M15.1785 17.1616H1.33923C1.18267 17.1616 1.03233 17.1345 0.892638 17.0845L0.462646 17.8102V23.5159C0.462646 24.2642 1.06228 24.8708 1.80192 24.8708H15.1785L16.0714 24.3874V18.0649C16.0714 17.566 15.6717 17.1616 15.1785 17.1616Z" fill="#F94747"/>
<path id="Vector_5" d="M0.892851 17.0844C0.373877 16.8977 0 16.3957 0 15.8066V23.9357C0 24.6839 0.599631 25.2905 1.33928 25.2905H15.1786C15.6717 25.2905 16.0714 24.8861 16.0714 24.3873H2.23213C1.49248 24.3873 0.892851 23.7807 0.892851 23.0324V17.0844Z" fill="#F03434"/>
<g id="Group_2">
<path id="Vector_6" d="M12.7409 20.7403H11.8646V19.8842H12.8551C13.1019 19.8842 13.3015 19.682 13.3015 19.4326C13.3015 19.1832 13.1018 18.981 12.8551 18.981H11.4181C11.3595 18.981 11.3014 18.9927 11.2473 19.0154C11.1931 19.038 11.1439 19.0713 11.1024 19.1132C11.061 19.1552 11.0281 19.205 11.0057 19.2598C10.9832 19.3146 10.9717 19.3733 10.9717 19.4326V23.0191C10.9717 23.2685 11.1714 23.4707 11.4181 23.4707C11.6649 23.4707 11.8646 23.2685 11.8646 23.0191V21.6435H12.7409C12.9876 21.6435 13.1873 21.4413 13.1873 21.1919C13.1873 20.9425 12.9876 20.7403 12.7409 20.7403ZM4.55297 18.9678H3.55854C3.49982 18.9678 3.44167 18.9795 3.38743 19.0023C3.3332 19.0251 3.28393 19.0584 3.24245 19.1005C3.15915 19.1852 3.11239 19.2999 3.11239 19.4194H3.11206V23.0323C3.11206 23.2817 3.31176 23.4839 3.55849 23.4839C3.80521 23.4839 4.00491 23.2817 4.00491 23.0323V21.9122C4.2052 21.9111 4.42539 21.9101 4.55291 21.9101C5.36554 21.9101 6.02691 21.2501 6.02691 20.4391C6.02696 19.6277 5.3656 18.9678 4.55297 18.9678ZM4.55297 21.0069C4.37176 21.0071 4.19055 21.0077 4.00934 21.0088C4.00848 20.8005 4.00632 19.871 4.00632 19.871H4.55302C4.86825 19.871 5.13417 20.1312 5.13417 20.439C5.13417 20.7469 4.86819 21.0069 4.55297 21.0069ZM8.29661 19.0211H7.31526C7.25655 19.0211 7.19841 19.0328 7.14417 19.0556C7.08994 19.0783 7.04066 19.1116 6.99917 19.1537C6.95769 19.1957 6.92482 19.2456 6.90245 19.3005C6.88009 19.3554 6.86866 19.4142 6.86883 19.4736L6.87143 21.2219C6.87143 21.7094 6.87581 22.9805 6.87581 22.9805C6.87604 23.0398 6.88783 23.0986 6.9105 23.1533C6.93316 23.2081 6.96627 23.2578 7.00793 23.2996C7.09153 23.3835 7.20452 23.4306 7.32229 23.4305H7.32402C7.32402 23.4305 8.05166 23.4277 8.33326 23.4228C9.38175 23.4041 10.143 22.4801 10.143 21.2259C10.1429 19.9071 9.40089 19.0211 8.29661 19.0211ZM8.31753 22.5196C8.18978 22.5218 7.96873 22.5238 7.76736 22.5249C7.76606 22.1114 7.76433 21.52 7.76433 21.2218L7.7626 19.9243H8.29666C9.20432 19.9243 9.25011 21.0084 9.25011 21.2258C9.25006 21.8616 8.96187 22.5081 8.31753 22.5196Z" fill="white"/>
</g>
<path id="Vector_7" d="M9.36132 15.278C9.01691 15.278 8.70563 15.0967 8.4868 14.7547C8.16157 14.2471 8.24704 13.6722 8.72093 13.1774C9.19877 12.6781 10.1766 12.2084 11.3533 11.8249C11.7204 11.125 12.094 10.3058 12.4432 9.40015C12.6495 8.86497 12.816 8.38247 12.9494 7.95093C12.3613 6.86024 12.0116 5.8448 12.1045 5.18543C12.1991 4.51639 12.693 4.13975 13.4272 4.18077C13.6452 4.19269 14.1653 4.30781 14.2909 5.11795C14.3868 5.7374 14.2255 6.73872 13.902 7.87661C14.5141 8.92119 15.3533 10.04 16.1742 10.8987C17.415 10.8222 18.4665 10.9137 18.9953 11.2366C19.4095 11.4893 19.5721 11.9014 19.4304 12.3387C19.1985 13.0534 18.6382 13.3808 17.9302 13.2139C17.3343 13.0732 16.5958 12.5468 15.8468 11.8161C14.6422 11.9233 13.2244 12.1713 11.9806 12.5413C11.2382 13.8893 10.4355 14.9388 9.76158 15.1994C9.62557 15.2522 9.49128 15.278 9.36132 15.278ZM9.2358 14.2639C9.31034 14.3799 9.35132 14.3775 9.37051 14.3752C9.65476 14.3459 10.1282 13.8495 10.6688 13.0105C10.3113 13.1655 9.9909 13.3335 9.72147 13.5139C9.04572 13.9666 9.18914 14.1902 9.2358 14.2639ZM17.1006 11.7564C17.4821 12.0581 17.8365 12.2642 18.133 12.3344C18.3645 12.3889 18.4835 12.3611 18.582 12.0574C18.4504 11.8554 17.8902 11.7584 17.1006 11.7564ZM13.5549 8.97172C13.2561 9.82961 12.9106 10.6701 12.5199 11.4893C13.3566 11.2767 14.2385 11.1093 15.0808 11.0031C14.5362 10.3788 14.01 9.67763 13.5549 8.97172ZM13.34 5.06556C13.023 5.06556 13.0065 5.18576 12.9881 5.31275C12.9415 5.6464 13.0574 6.12092 13.2863 6.66801C13.4882 5.6931 13.4472 5.17734 13.3491 5.06556H13.34Z" fill="#F43D3D"/>
</g>
</svg>
