<svg width="24" height="24" viewBox="0 0 24 24" fill="none" xmlns="http://www.w3.org/2000/svg">
<g id="Group">
<g id="Group_2">
<path id="Vector" d="M22.5473 18.9712H5.11934V1.45267C5.11934 1.18107 4.93827 1 4.66667 1C4.39506 1 4.21399 1.18107 4.21399 1.45267V18.9712H1.45267C1.18107 18.9712 1 19.1523 1 19.4239C1 19.6955 1.18107 19.8765 1.45267 19.8765H4.21399V22.5473C4.21399 22.8189 4.39506 23 4.66667 23C4.93827 23 5.11934 22.8189 5.11934 22.5473V19.8765H22.5473C22.8189 19.8765 23 19.6955 23 19.4239C23 19.1523 22.7737 18.9712 22.5473 18.9712Z" fill="#AAAAAA" stroke="#AAAAAA" stroke-width="0.5"/>
<path id="Vector_2" d="M19.5593 11.1397L22.0038 8.55949C22.1849 8.37842 22.1849 8.10681 22.0038 7.92574C21.8227 7.74467 21.5511 7.74467 21.37 7.92574L18.9709 10.4607L13.403 4.48541C13.3124 4.39488 13.1766 4.34961 13.0861 4.34961C12.9503 4.34961 12.8597 4.39488 12.7692 4.48541L6.70337 10.9587C6.5223 11.1397 6.5223 11.4113 6.74864 11.5924C6.92971 11.7735 7.20131 11.7735 7.38238 11.5471L13.0408 5.43603L18.2918 11.1397L15.9379 13.6294L13.1314 10.0986C13.0408 10.008 12.9503 9.91751 12.8145 9.91751C12.6787 9.91751 12.5429 9.96278 12.4523 10.0533L6.74864 15.6665C6.56757 15.8476 6.56757 16.1192 6.74864 16.3002C6.83917 16.3908 6.97498 16.436 7.06551 16.436C7.20131 16.436 7.29185 16.3908 7.38238 16.3002L12.7692 11.0039L15.5758 14.5801C15.6663 14.6706 15.8021 14.7611 15.8927 14.7611C16.0285 14.7611 16.1643 14.7159 16.2548 14.6253L18.9256 11.8187L21.3248 14.4443C21.4153 14.5348 21.5511 14.5801 21.6416 14.5801C21.7322 14.5801 21.868 14.5348 21.9585 14.4443C22.1396 14.2632 22.1396 13.9916 22.0038 13.8105L19.5593 11.1397Z" fill="#AAAAAA" stroke="#AAAAAA" stroke-width="0.5"/>
</g>
</g>
</svg>
