<svg width="20" height="22" viewBox="0 0 20 22" fill="none" xmlns="http://www.w3.org/2000/svg">
<g id="Group">
<g id="Group_2">
<path id="Vector" d="M19.999 14.767C19.9723 13.9466 19.7898 13.4749 19.4072 13.2374C18.1432 12.4526 15.9943 13.3465 14.6646 14.0364C14.4104 13.7039 13.9739 13.5226 13.516 13.5808L11.7386 13.808C11.4343 13.8469 11.1186 13.8037 10.8257 13.6829C10.4835 13.5419 9.84635 13.2794 8.8239 13.3916C6.98746 13.593 7.03972 13.7373 6.53378 13.9713C6.41754 14.0216 6.01995 14.0837 5.56337 14.1284C5.36233 13.6926 4.90786 13.3875 4.38037 13.3875H2.02096C1.30777 13.3875 0.727539 13.9448 0.727539 14.6297V20.2571C0.727539 20.9421 1.30777 21.4993 2.02096 21.4993H4.38037C4.97426 21.4993 5.47563 21.1127 5.62683 20.588L6.59129 20.4194C6.86278 20.3811 6.52507 20.3784 12.3284 20.7599C13.9442 20.8661 15.4976 20.2732 16.5202 19.2554C19.7427 16.0887 19.1984 16.6222 19.2614 16.5617C19.7586 16.0662 20.0206 15.4289 19.999 14.767ZM4.38032 20.2571H2.02096V14.6298H4.38037V20.2571H4.38032ZM18.3316 15.6981C15.1091 18.8647 15.6538 18.3309 15.5907 18.3915C14.8021 19.1774 13.6154 19.5995 12.4167 19.5207L7.2026 19.1781C6.64113 19.1166 6.30217 19.2075 5.67378 19.3172V15.3676C6.17477 15.3204 6.78013 15.2362 7.09387 15.091C7.57442 14.8689 7.40403 14.7977 8.97066 14.6258C9.65203 14.551 10.0514 14.7156 10.3157 14.8246C10.8229 15.0336 11.3738 15.1078 11.9093 15.0394L13.6317 14.8192C13.6942 15.0266 13.7092 15.3076 13.6275 15.4824C13.586 15.571 13.5242 15.6246 13.4206 15.6618C12.7038 15.9192 12.7038 15.9192 9.62755 16.3462C9.27405 16.3953 9.02891 16.7103 9.08 17.0498C9.13126 17.3904 9.46048 17.6247 9.81255 17.5756C12.9662 17.1379 13.0265 17.1295 13.8736 16.8253C14.5112 16.5963 14.9349 16.0593 14.9732 15.2902C16.1685 14.6228 17.9309 13.9306 18.6327 14.2426C18.6561 14.3139 18.6956 14.4797 18.7063 14.806C18.7168 15.1293 18.5838 15.4461 18.3316 15.6981ZM11.7647 12.1415C15.1643 12.1415 17.93 9.48533 17.93 6.22041C17.93 2.95549 15.1643 0.299316 11.7647 0.299316C8.36513 0.299316 5.59941 2.95549 5.59941 6.22041C5.59941 9.48533 8.36513 12.1415 11.7647 12.1415ZM11.7647 1.5415C14.4511 1.5415 16.6366 3.64043 16.6366 6.22041C16.6366 8.80039 14.4511 10.8993 11.7647 10.8993C9.07832 10.8993 6.89283 8.80039 6.89283 6.22041C6.89283 3.64043 9.07832 1.5415 11.7647 1.5415Z" fill="#AAAAAA"/>
<path id="Vector_2" d="M10.1048 8.85714C10.4919 9.1004 10.7871 9.2134 11.1229 9.26276V9.37224C11.1229 9.71525 11.4125 9.99333 11.7696 9.99333C12.1268 9.99333 12.4164 9.71525 12.4164 9.37224V9.19609C13.1698 8.95304 13.6514 8.30843 13.7628 7.67197C13.9166 6.79329 13.4211 5.9997 12.5298 5.69714C12.0778 5.54369 11.579 5.35927 11.3076 5.1548C11.266 5.12346 11.2352 5.02152 11.2601 4.89444C11.2725 4.83117 11.33 4.61971 11.5471 4.5569C12.0993 4.39719 12.3468 4.69317 12.5648 4.80273C12.8814 4.96164 13.2721 4.84409 13.4376 4.54009C13.599 4.24349 13.4864 3.879 13.1868 3.71387C12.9651 3.56928 12.7585 3.43632 12.4164 3.34403V3.24805C12.4164 2.90504 12.1269 2.62695 11.7697 2.62695C11.4126 2.62695 11.123 2.90504 11.123 3.24805V3.38427C9.87182 3.78935 9.56648 5.42192 10.5095 6.13232C10.927 6.4468 11.5201 6.67193 12.0988 6.86836C12.4835 6.99896 12.5224 7.26549 12.4873 7.4661C12.438 7.74799 12.191 8.05258 11.7654 8.05527C11.2899 8.05912 11.166 8.03962 10.8129 7.81772C10.514 7.6299 10.1132 7.71036 9.9176 7.99747C9.72208 8.28441 9.80585 8.66932 10.1048 8.85714Z" fill="#AAAAAA"/>
</g>
</g>
</svg>
