<svg width="16" height="28" viewBox="0 0 16 28" fill="none" xmlns="http://www.w3.org/2000/svg">
<g id="Group">
<path id="Vector" d="M12.8799 0.191406H3.11987C1.39744 0.193182 0.00175 1.47246 0 3.05116V24.2173C0.0016875 25.796 1.3975 27.0752 3.11987 27.0769H12.8799C14.6023 27.0753 15.998 25.796 16 24.2173V3.05116C15.9981 1.47246 14.6023 0.193239 12.8799 0.191406ZM14.6665 24.2173C14.6655 25.1213 13.8662 25.8539 12.8799 25.8549H3.11987C2.13356 25.8539 1.33425 25.1213 1.33325 24.2173V3.05116C1.33425 2.14693 2.13356 1.41432 3.11987 1.4134H12.8799C13.8662 1.41432 14.6655 2.14693 14.6665 3.05116V24.2173Z" fill="#AAAAAA"/>
<path id="Vector_2" d="M9.92407 2.63574H5.92407C5.55595 2.63574 5.25732 2.90916 5.25732 3.24662C5.25732 3.58409 5.55589 3.85774 5.92407 3.85774H9.92407C10.2922 3.85774 10.5906 3.58409 10.5906 3.24662C10.5906 2.90916 10.2923 2.63574 9.92407 2.63574ZM9.25732 23.4108C9.25732 24.0859 8.66045 24.633 7.92407 24.633C7.18751 24.633 6.59057 24.0859 6.59057 23.4108C6.59057 22.7359 7.18745 22.1888 7.92407 22.1888C8.66039 22.1888 9.25732 22.7358 9.25732 23.4108Z" fill="#AAAAAA"/>
</g>
</svg>
