<svg width="40" height="37" viewBox="0 0 40 37" fill="none" xmlns="http://www.w3.org/2000/svg">
<g id="Group 101178">
<path id="Rectangle 30459" opacity="0.8" d="M32 0H8C3.58172 0 0 3.31309 0 7.4V29.6C0 33.6869 3.58172 37 8 37H32C36.4183 37 40 33.6869 40 29.6V7.4C40 3.31309 36.4183 0 32 0Z" fill="#F5F5F5"/>
<g id="Group">
<path id="Vector" d="M26.188 15.3178C27.2016 14.7763 27.8876 13.7484 27.8876 12.5717C27.8876 10.8338 26.3915 9.41992 24.5522 9.41992C22.5913 9.41992 21.0248 11.0266 21.2355 12.9097C20.2932 12.459 19.1753 12.4588 18.2327 12.9097C18.4434 11.0307 16.8809 9.41992 14.916 9.41992C13.077 9.41992 11.5805 10.8338 11.5805 12.5717C11.5805 13.7484 12.2665 14.7763 13.2805 15.3178C11.6351 15.9349 10.4688 17.4538 10.4688 19.2257V23.0779C10.4688 23.2713 10.6345 23.4282 10.8394 23.4282H15.2867V26.2296C15.2867 26.423 15.4528 26.5799 15.6573 26.5799H23.8108C24.0156 26.5799 24.1814 26.423 24.1814 26.2296V23.4282H28.629C28.8336 23.4282 28.9993 23.2713 28.9993 23.0779V19.2257C28.9993 17.4538 27.833 15.9349 26.188 15.3178ZM24.5521 10.1202C25.9828 10.1202 27.1462 11.22 27.1462 12.5717C27.1462 13.9235 25.9827 15.0232 24.5521 15.0232C23.8502 15.0232 23.196 14.7629 22.7044 14.2905C22.5687 14.0407 22.3985 13.8091 22.1984 13.6016C22.0394 13.278 21.9576 12.9319 21.9576 12.5717C21.9576 11.22 23.1215 10.1202 24.5521 10.1202ZM22.3269 15.7826C22.2809 17.1525 21.108 18.1751 19.7342 18.1751C18.2985 18.1751 17.1397 17.069 17.1397 15.7235C17.1397 14.372 18.3035 13.2722 19.7342 13.2722C21.1775 13.2722 22.3623 14.3962 22.3269 15.7826ZM12.3218 12.5717C12.3218 11.22 13.4856 10.1203 14.9159 10.1203C16.3466 10.1203 17.5104 11.22 17.5104 12.5717C17.5104 12.9319 17.4289 13.278 17.2697 13.6016C17.0694 13.8091 16.8993 14.0408 16.7636 14.2906C16.272 14.7629 15.6182 15.0233 14.9159 15.0233C13.4857 15.0233 12.3218 13.9235 12.3218 12.5717ZM11.2097 22.7276V19.2257C11.2097 17.2946 12.8724 15.7235 14.9159 15.7235C15.4397 15.7235 15.9422 15.8237 16.4135 16.0211C16.5181 17.0719 17.1708 17.9743 18.0983 18.4696C16.4529 19.0866 15.2866 20.6058 15.2866 22.3775V22.7276H11.2097ZM23.4404 25.8796H16.028V22.3775C16.028 20.4464 17.6907 18.8755 19.7342 18.8755C21.7778 18.8755 23.4404 20.4465 23.4404 22.3775V25.8796ZM28.2583 22.7276H24.1814V22.3775C24.1814 20.6058 23.015 19.0866 21.3698 18.4696C22.2972 17.9743 22.9499 17.0719 23.0545 16.0211C23.5259 15.8237 24.0287 15.7235 24.5522 15.7235C26.5956 15.7235 28.2583 17.2946 28.2583 19.2257V22.7276H28.2583Z" fill="#8A8A8A" stroke="#8A8A8A" stroke-width="0.3"/>
</g>
</g>
</svg>
