<svg width="52" height="52" viewBox="0 0 52 52" fill="none" xmlns="http://www.w3.org/2000/svg">
<g id="Group 45983">
<path id="Rectangle 30466" d="M42.5455 0H9.45455C4.23294 0 0 4.23294 0 9.45455V42.5455C0 47.7671 4.23294 52 9.45455 52H42.5455C47.7671 52 52 47.7671 52 42.5455V9.45455C52 4.23294 47.7671 0 42.5455 0Z" fill="#F5F5F5"/>
<path id="bell" d="M27.9042 35.9041C27.7107 36.2374 27.4331 36.5141 27.0991 36.7064C26.7652 36.8988 26.3865 37 26.0011 37C25.6157 37 25.2371 36.8988 24.9031 36.7064C24.5691 36.5141 24.2915 36.2374 24.098 35.9041M37 31.4995H15C15.8752 31.4995 16.7146 31.1518 17.3335 30.5329C17.9524 29.9139 18.3001 29.0745 18.3001 28.1992V22.7004C18.3001 20.6582 19.1113 18.6995 20.5554 17.2554C21.9994 15.8113 23.9579 15 26 15C28.0421 15 30.0006 15.8113 31.4446 17.2554C32.8887 18.6995 33.6999 20.6582 33.6999 22.7004V28.1992C33.6999 29.0745 34.0476 29.9139 34.6665 30.5329C35.2854 31.1518 36.1248 31.4995 37 31.4995Z" stroke="#293255" stroke-width="2" stroke-linecap="round" stroke-linejoin="round"/>
</g>
</svg>
