<svg width="55" height="55" viewBox="0 0 55 55" fill="none" xmlns="http://www.w3.org/2000/svg">
<g id="mail">
<path id="Path 30028" d="M27.5 0C32.939 0 38.2558 1.61285 42.7782 4.63458C47.3005 7.65632 50.8253 11.9512 52.9067 16.9762C54.9881 22.0012 55.5327 27.5305 54.4716 32.865C53.4105 38.1994 50.7914 43.0995 46.9454 46.9454C43.0995 50.7914 38.1994 53.4105 32.865 54.4716C27.5305 55.5327 22.0012 54.9881 16.9762 52.9067C11.9512 50.8253 7.65632 47.3005 4.63458 42.7782C1.61285 38.2558 0 32.939 0 27.5C0 20.2065 2.89731 13.2118 8.05456 8.05456C13.2118 2.89731 20.2065 0 27.5 0Z" fill="#F6F6F6"/>
<g id="Icon ionic-ios-mail">
<path id="Path 30030" d="M41.4245 20.1036L34.1015 27.5621C34.0889 27.5746 34.0789 27.5894 34.0721 27.6058C34.0653 27.6221 34.0618 27.6396 34.0618 27.6573C34.0618 27.6751 34.0653 27.6926 34.0721 27.7089C34.0789 27.7253 34.0889 27.7401 34.1015 27.7526L39.2258 33.211C39.3083 33.293 39.3737 33.3905 39.4184 33.4979C39.463 33.6053 39.486 33.7205 39.486 33.8368C39.486 33.9531 39.463 34.0683 39.4184 34.1757C39.3737 34.2831 39.3083 34.3806 39.2258 34.4626C39.0596 34.6281 38.8346 34.7211 38.6 34.7211C38.3655 34.7211 38.1404 34.6281 37.9743 34.4626L32.8713 29.031C32.8588 29.0174 32.8435 29.0065 32.8266 28.9991C32.8096 28.9917 32.7913 28.9878 32.7727 28.9878C32.7542 28.9878 32.7359 28.9917 32.7189 28.9991C32.7019 29.0065 32.6867 29.0174 32.6741 29.031L31.4293 30.2973C30.9202 30.8176 30.3125 31.2312 29.6418 31.5141C28.9711 31.7969 28.2508 31.9433 27.5229 31.9447C26.7778 31.9406 26.0409 31.7875 25.3558 31.4945C24.6707 31.2015 24.051 30.7744 23.5334 30.2383L22.3355 29.031C22.3229 29.0174 22.3077 29.0065 22.2907 28.9991C22.2737 28.9917 22.2554 28.9878 22.2369 28.9878C22.2184 28.9878 22.2 28.9917 22.1831 28.9991C22.1661 29.0065 22.1508 29.0174 22.1383 29.031L17.0407 34.468C16.8745 34.6335 16.6495 34.7265 16.4149 34.7265C16.1804 34.7265 15.9553 34.6335 15.7891 34.468C15.7067 34.3859 15.6412 34.2884 15.5966 34.181C15.5519 34.0736 15.529 33.9585 15.529 33.8422C15.529 33.7259 15.5519 33.6107 15.5966 33.5033C15.6412 33.3959 15.7067 33.2984 15.7891 33.2164L20.9135 27.758C20.9366 27.7316 20.9492 27.6977 20.9492 27.6627C20.9492 27.6277 20.9366 27.5939 20.9135 27.5675L13.5838 20.1089C13.5651 20.0895 13.541 20.0762 13.5146 20.0707C13.4883 20.0652 13.4609 20.0677 13.436 20.078C13.4111 20.0883 13.3899 20.1058 13.3751 20.1283C13.3603 20.1508 13.3526 20.1773 13.353 20.2042V35.1226C13.3545 35.699 13.5837 36.2515 13.9908 36.6596C14.3979 37.0677 14.9498 37.2983 15.5262 37.3011H39.478C40.0549 37.2994 40.6077 37.0694 41.0156 36.6615C41.4235 36.2536 41.6535 35.7008 41.6552 35.1239V20.1988C41.6557 20.1719 41.648 20.1455 41.6332 20.123C41.6184 20.1005 41.5972 20.0829 41.5723 20.0726C41.5474 20.0624 41.52 20.0598 41.4936 20.0653C41.4673 20.0709 41.4432 20.0842 41.4245 20.1036Z" fill="#293255"/>
<path id="Path 30031" d="M27.5016 30.1613C27.9974 30.1631 28.4885 30.0652 28.9457 29.8735C29.4029 29.6817 29.8169 29.4001 30.1631 29.0452L40.8411 18.1793C40.4615 17.8721 39.9881 17.704 39.4997 17.7031H15.517C15.0284 17.7029 14.5546 17.8711 14.1755 18.1793L24.8536 29.0452C25.1982 29.3984 25.61 29.6792 26.0648 29.8708C26.5196 30.0625 27.0081 30.1613 27.5016 30.1613Z" fill="#293255"/>
</g>
</g>
</svg>
