<svg width="20" height="20" viewBox="0 0 20 20" fill="none" xmlns="http://www.w3.org/2000/svg">
<g id="Group">
<path id="Vector" d="M16.4325 0H0.988629C0.442624 0 0 0.442624 0 0.988629V10.9489C0 11.4949 0.442624 11.9375 0.988629 11.9375H16.4325C16.9785 11.9375 17.4211 11.4949 17.4211 10.9489V0.988629C17.4211 0.442624 16.9785 0 16.4325 0Z" fill="#E57E25"/>
<path id="Vector_2" d="M17.0213 11.7265C17.146 11.6312 17.247 11.5083 17.3166 11.3676C17.3861 11.2268 17.4222 11.0719 17.4221 10.9149V1.02257C17.4221 0.751369 17.3143 0.491274 17.1226 0.299505C16.9308 0.107735 16.6707 0 16.3995 0L6.50488 0L17.0002 11.7188L17.0213 11.7265Z" fill="#F29C1F"/>
<path id="Vector_3" d="M10.9172 0H1.02257C0.75137 0 0.491274 0.107735 0.299505 0.299505C0.107735 0.491274 2.58447e-07 0.751369 2.58447e-07 1.02257V10.9149C-0.000108109 11.0672 0.0338637 11.2176 0.0994251 11.355C0.164986 11.4924 0.260475 11.6134 0.37889 11.7092L0.421857 11.7188L10.9172 0Z" fill="#F29C1F"/>
<path id="Vector_4" d="M16.3985 0H1.02257C0.751369 0 0.491274 0.107735 0.299505 0.299505C0.107735 0.491274 0 0.751369 0 1.02257L0 1.41564L7.37921 6.50046C7.77076 6.77027 8.23505 6.91475 8.71056 6.91475C9.18607 6.91475 9.65036 6.77027 10.0419 6.50046L17.4211 1.41564V1.02257C17.4211 0.751369 17.3134 0.491274 17.1216 0.299505C16.9298 0.107735 16.6697 0 16.3985 0Z" fill="#F0C419"/>
<path id="Vector_5" d="M4.5365 19.9994C4.47241 19.9994 4.40986 19.9798 4.35733 19.943C4.3048 19.9063 4.26483 19.8543 4.24284 19.7941C4.22085 19.7339 4.21791 19.6684 4.23441 19.6065C4.2509 19.5446 4.28604 19.4892 4.33507 19.4479L8.65472 15.8576C8.68598 15.8303 8.72237 15.8094 8.76177 15.7963C8.80118 15.7832 8.8428 15.778 8.88422 15.7812C8.92563 15.7843 8.966 15.7957 9.00296 15.8146C9.03993 15.8336 9.07275 15.8597 9.09951 15.8914C9.12626 15.9232 9.14642 15.96 9.1588 15.9996C9.17118 16.0393 9.17553 16.081 9.17159 16.1223C9.16766 16.1637 9.15553 16.2038 9.1359 16.2404C9.11627 16.277 9.08955 16.3094 9.05728 16.3355L4.73767 19.9259C4.68141 19.9735 4.61014 19.9995 4.5365 19.9994Z" fill="#FF5364"/>
<path id="Vector_6" d="M8.19765 19.3189C8.13408 19.319 8.072 19.2996 8.01972 19.2634C7.96743 19.2273 7.92742 19.176 7.90503 19.1165C7.88264 19.057 7.87893 18.9921 7.8944 18.9304C7.90987 18.8687 7.94378 18.8133 7.99161 18.7714L9.05492 17.7999C9.08576 17.7727 9.12167 17.7518 9.16059 17.7385C9.19952 17.7252 9.24069 17.7197 9.28174 17.7223C9.3228 17.725 9.36293 17.7357 9.39983 17.7538C9.43674 17.772 9.46969 17.7973 9.4968 17.8283C9.52391 17.8592 9.54464 17.8952 9.5578 17.9342C9.57097 17.9731 9.57631 18.0143 9.57351 18.0554C9.57072 18.0964 9.55985 18.1365 9.54153 18.1733C9.5232 18.2102 9.49779 18.243 9.46674 18.27L8.40362 19.2415C8.34669 19.2915 8.27345 19.319 8.19765 19.3189Z" fill="#35ACEF"/>
<path id="Vector_7" d="M9.35645 13.1381L11.3279 17.8604L14.9296 12.4574L19.993 7.63281L9.35645 13.1381Z" fill="#285680"/>
<path id="Vector_8" d="M19.9929 7.59766L9.60151 13.659L6.54395 12.8658L19.9929 7.59766Z" fill="#7ED0FC"/>
<path id="Vector_9" d="M16.3384 11.6064L11.3328 17.8603L11.9235 14.2784L16.3384 11.6064Z" fill="#35ACEF"/>
<path id="Vector_10" d="M19.9958 7.63278C19.9987 7.62391 20.0024 7.61716 19.9958 7.62372L11.9214 14.2784L16.9233 15.64L19.9958 7.63278Z" fill="#7ED0FC"/>
</g>
</svg>
