<svg width="40" height="37" viewBox="0 0 40 37" fill="none" xmlns="http://www.w3.org/2000/svg">
<g id="noun_list">
<path id="Rectangle 30459" opacity="0.8" d="M32 0H8C3.58172 0 0 3.31309 0 7.4V29.6C0 33.6869 3.58172 37 8 37H32C36.4183 37 40 33.6869 40 29.6V7.4C40 3.31309 36.4183 0 32 0Z" fill="#F5F5F5"/>
<g id="noun_list_2">
<g id="Group 25815">
<path id="Path 29469" d="M27.8099 12.4502L25.4959 10.1362C25.2458 9.88477 24.948 9.68575 24.6201 9.55079C24.2921 9.41583 23.9405 9.34763 23.5859 9.35019L14.0399 9.32719C13.6848 9.3252 13.3328 9.39368 13.0043 9.52866C12.6758 9.66365 12.3774 9.86245 12.1263 10.1136C11.8751 10.3647 11.6763 10.6631 11.5414 10.9916C11.4064 11.3201 11.3379 11.6721 11.3399 12.0272V27.9762C11.3399 28.6923 11.6243 29.379 12.1307 29.8854C12.637 30.3917 13.3238 30.6762 14.0399 30.6762H25.8999C26.616 30.6762 27.3027 30.3917 27.8091 29.8854C28.3154 29.379 28.5999 28.6923 28.5999 27.9762V14.3382C28.5936 13.6298 28.31 12.952 27.8099 12.4502ZM26.8209 13.4392C26.9156 13.5419 26.9985 13.6549 27.0679 13.7762H24.2599C24.2368 13.774 24.2151 13.7638 24.1987 13.7474C24.1823 13.7309 24.1721 13.7093 24.1699 13.6862V10.9002C24.296 10.9619 24.4101 11.0455 24.5069 11.1472L26.8209 13.4392ZM25.8999 29.2572H14.0399C13.7017 29.2523 13.3787 29.1157 13.1395 28.8766C12.9003 28.6374 12.7638 28.3144 12.7589 27.9762V12.0272C12.7572 11.859 12.7902 11.6922 12.856 11.5373C12.9217 11.3825 13.0187 11.2428 13.1409 11.1272C13.2579 11.0068 13.3978 10.9109 13.5523 10.8453C13.7069 10.7797 13.873 10.7457 14.0409 10.7452L22.7589 10.7672V13.7082C22.7589 14.1067 22.9169 14.489 23.1982 14.7713C23.4796 15.0536 23.8613 15.2129 24.2599 15.2142H27.2029V27.9992C27.1893 28.3362 27.0462 28.6551 26.8035 28.8894C26.5609 29.1237 26.2372 29.2554 25.8999 29.2572Z" fill="#8A8A8A"/>
<path id="Path 29470" d="M24.7087 21.3032H19.8137C19.641 21.3206 19.4809 21.4014 19.3645 21.5301C19.2481 21.6588 19.1836 21.8262 19.1836 21.9997C19.1836 22.1733 19.2481 22.3406 19.3645 22.4693C19.4809 22.598 19.641 22.6789 19.8137 22.6962H24.7137C24.8864 22.6789 25.0464 22.598 25.1629 22.4693C25.2793 22.3406 25.3438 22.1733 25.3438 21.9997C25.3438 21.8262 25.2793 21.6588 25.1629 21.5301C25.0464 21.4014 24.8864 21.3206 24.7137 21.3032H24.7087Z" fill="#8A8A8A"/>
<path id="Path 29471" d="M24.7087 17.3043H19.8137C19.641 17.3216 19.4809 17.4025 19.3645 17.5312C19.2481 17.6599 19.1836 17.8272 19.1836 18.0008C19.1836 18.1743 19.2481 18.3417 19.3645 18.4704C19.4809 18.5991 19.641 18.6799 19.8137 18.6973H24.7137C24.811 18.7071 24.9093 18.6963 25.0022 18.6658C25.0952 18.6352 25.1807 18.5855 25.2532 18.5199C25.3257 18.4543 25.3837 18.3742 25.4234 18.2847C25.4631 18.1953 25.4836 18.0986 25.4836 18.0008C25.4836 17.903 25.4631 17.8062 25.4234 17.7168C25.3837 17.6274 25.3257 17.5473 25.2532 17.4817C25.1807 17.4161 25.0952 17.3664 25.0022 17.3358C24.9093 17.3053 24.811 17.2945 24.7137 17.3043H24.7087Z" fill="#8A8A8A"/>
<path id="Path 29472" d="M24.7087 25.2803H19.8137C19.641 25.2976 19.4809 25.3785 19.3645 25.5072C19.2481 25.6359 19.1836 25.8032 19.1836 25.9768C19.1836 26.1503 19.2481 26.3177 19.3645 26.4464C19.4809 26.5751 19.641 26.6559 19.8137 26.6733H24.7137C24.8864 26.6559 25.0464 26.5751 25.1629 26.4464C25.2793 26.3177 25.3438 26.1503 25.3438 25.9768C25.3438 25.8032 25.2793 25.6359 25.1629 25.5072C25.0464 25.3785 24.8864 25.2976 24.7137 25.2803H24.7087Z" fill="#8A8A8A"/>
<path id="Path 29473" d="M17.1371 16.5841L16.0371 17.6841L15.7451 17.3921C15.6121 17.2703 15.4372 17.2045 15.2569 17.2085C15.0766 17.2124 14.9048 17.2858 14.7773 17.4133C14.6498 17.5408 14.5764 17.7127 14.5724 17.893C14.5685 18.0733 14.6343 18.2481 14.7561 18.3811L15.5651 19.1901C15.697 19.3199 15.8746 19.3926 16.0596 19.3926C16.2446 19.3926 16.4222 19.3199 16.5541 19.1901L18.1721 17.5721C18.3019 17.4402 18.3746 17.2626 18.3746 17.0776C18.3746 16.8926 18.3019 16.715 18.1721 16.5831C18.105 16.5136 18.0245 16.4584 17.9356 16.4207C17.8466 16.3831 17.751 16.3637 17.6544 16.3638C17.5578 16.3639 17.4622 16.3834 17.3733 16.4213C17.2844 16.4591 17.2041 16.5145 17.1371 16.5841Z" fill="#8A8A8A"/>
<path id="Path 29474" d="M17.1371 20.559L16.0371 21.659L15.7451 21.367C15.6121 21.2452 15.4372 21.1794 15.2569 21.1834C15.0766 21.1873 14.9048 21.2607 14.7773 21.3882C14.6498 21.5157 14.5764 21.6876 14.5724 21.8679C14.5685 22.0482 14.6343 22.223 14.7561 22.356L15.5651 23.165C15.697 23.2948 15.8746 23.3675 16.0596 23.3675C16.2446 23.3675 16.4222 23.2948 16.5541 23.165L18.1721 21.547C18.3019 21.4151 18.3746 21.2375 18.3746 21.0525C18.3746 20.8675 18.3019 20.6899 18.1721 20.558C18.0312 20.4276 17.8463 20.3553 17.6544 20.3555C17.4625 20.3557 17.2777 20.4284 17.1371 20.559Z" fill="#8A8A8A"/>
<path id="Path 29475" d="M17.1371 24.5361L16.0371 25.6361L15.7451 25.3441C15.6121 25.2222 15.4372 25.1565 15.2569 25.1604C15.0766 25.1644 14.9048 25.2377 14.7773 25.3653C14.6498 25.4928 14.5764 25.6646 14.5724 25.8449C14.5685 26.0252 14.6343 26.2001 14.7561 26.3331L15.5651 27.1421C15.697 27.2718 15.8746 27.3446 16.0596 27.3446C16.2446 27.3446 16.4222 27.2718 16.5541 27.1421L18.1721 25.5241C18.3019 25.3922 18.3746 25.2146 18.3746 25.0296C18.3746 24.8445 18.3019 24.6669 18.1721 24.5351C18.0312 24.4047 17.8463 24.3323 17.6544 24.3325C17.4625 24.3327 17.2777 24.4054 17.1371 24.5361Z" fill="#8A8A8A"/>
</g>
</g>
</g>
</svg>
