<svg width="40" height="37" viewBox="0 0 40 37" fill="none" xmlns="http://www.w3.org/2000/svg">
<g id="noun_product_">
<path id="Rectangle 30458" opacity="0.8" d="M31.999 0H7.99902C3.58075 0 -0.000976562 3.31309 -0.000976562 7.4V29.6C-0.000976562 33.6869 3.58075 37 7.99902 37H31.999C36.4173 37 39.999 33.6869 39.999 29.6V7.4C39.999 3.31309 36.4173 0 31.999 0Z" fill="#F5F5F5"/>
<g id="noun_product_3165399">
<g id="Layer 12">
<path id="Path 38123" d="M29.2811 17.8248C29.0918 17.8248 28.9101 17.9 28.7762 18.0339C28.6423 18.1678 28.5671 18.3494 28.5671 18.5388V27.8248C28.5671 28.0141 28.4919 28.1957 28.358 28.3297C28.2241 28.4636 28.0425 28.5388 27.8531 28.5388H12.1381C11.9488 28.5388 11.7671 28.4636 11.6332 28.3297C11.4993 28.1957 11.4241 28.0141 11.4241 27.8248V16.7318C11.4226 16.615 11.4497 16.4996 11.5031 16.3958L13.8091 11.7888C13.869 11.6698 13.9609 11.57 14.0745 11.5005C14.1882 11.4311 14.319 11.3948 14.4521 11.3958H17.0451L16.5091 15.6818H13.5661C13.3766 15.6818 13.1949 15.7571 13.0609 15.891C12.9269 16.025 12.8516 16.2068 12.8516 16.3963C12.8516 16.5858 12.9269 16.7675 13.0609 16.9015C13.1949 17.0355 13.3766 17.1108 13.5661 17.1108H16.4241V23.5398C16.4238 23.6685 16.4591 23.7949 16.526 23.9049C16.5929 24.0149 16.6888 24.1044 16.8032 24.1634C16.9177 24.2224 17.0461 24.2487 17.1746 24.2394C17.303 24.2302 17.4264 24.1856 17.5311 24.1108L19.9951 22.2888L22.4241 24.1098C22.5478 24.2027 22.6984 24.2528 22.8531 24.2528C22.9651 24.2545 23.0757 24.2273 23.1741 24.1738C23.292 24.1144 23.3911 24.0236 23.4605 23.9113C23.5299 23.7991 23.5668 23.6698 23.5671 23.5378V17.1108H29.2811C29.4179 17.1095 29.5515 17.0689 29.6659 16.9939C29.7803 16.9189 29.8708 16.8126 29.9265 16.6877C29.9822 16.5627 30.0009 16.4244 29.9802 16.2891C29.9596 16.1539 29.9006 16.0274 29.8101 15.9248C29.8025 15.8731 29.788 15.8227 29.7671 15.7748L27.4591 11.1538C27.281 10.7969 27.0068 10.4968 26.6675 10.2873C26.3281 10.0778 25.937 9.96712 25.5381 9.96778H14.4521C14.0533 9.96712 13.6622 10.0778 13.3228 10.2873C12.9834 10.4968 12.7092 10.7969 12.5311 11.1538L10.2241 15.7748C10.0746 16.0717 9.99619 16.3993 9.99512 16.7318V27.8248C9.99512 28.3931 10.2209 28.9382 10.6228 29.3401C11.0247 29.742 11.5698 29.9678 12.1381 29.9678H27.8521C28.4205 29.9678 28.9656 29.742 29.3674 29.3401C29.7693 28.9382 29.9951 28.3931 29.9951 27.8248V18.5388C29.9951 18.3494 29.9199 18.1678 29.786 18.0339C29.6521 17.9 29.4705 17.8248 29.2811 17.8248ZM25.5381 11.3968C25.6713 11.3958 25.8021 11.4321 25.9157 11.5015C26.0293 11.571 26.1213 11.6708 26.1811 11.7898L28.1241 15.6828H23.4091L22.3381 11.3968H25.5381ZM18.4811 11.3968H20.8671L21.9381 15.6828H17.9451L18.4811 11.3968ZM17.8521 17.1108H22.1381V22.1108L20.4241 20.8248C20.3005 20.732 20.1501 20.6819 19.9956 20.6819C19.8411 20.6819 19.6907 20.732 19.5671 20.8248L17.8521 22.1108V17.1108ZM26.4231 25.6818C26.6126 25.6818 26.7943 25.7571 26.9283 25.891C27.0623 26.025 27.1376 26.2068 27.1376 26.3963C27.1376 26.5858 27.0623 26.7675 26.9283 26.9015C26.7943 27.0355 26.6126 27.1108 26.4231 27.1108H23.5661C23.3766 27.1108 23.1949 27.0355 23.0609 26.9015C22.9269 26.7675 22.8516 26.5858 22.8516 26.3963C22.8516 26.2068 22.9269 26.025 23.0609 25.891C23.1949 25.7571 23.3766 25.6818 23.5661 25.6818H26.4231Z" fill="#8A8A8A"/>
</g>
</g>
</g>
</svg>
