<svg width="86" height="70" viewBox="0 0 86 70" fill="none" xmlns="http://www.w3.org/2000/svg">
<g id="Group" opacity="0.43">
<path id="Vector" d="M85.7288 43.7138C85.7288 38.5649 81.4433 34.3517 76.2018 34.3517H62.4051C60.0783 34.3412 57.8221 35.1973 56.0315 36.7701L56.0285 36.7783C55.0117 36.548 53.9749 36.4316 52.9351 36.4309H32.806C31.7713 36.4316 30.7395 36.5471 29.7275 36.7754L29.7149 36.7701C27.9243 35.1973 25.6681 34.3412 23.3413 34.3517H9.53928C4.30314 34.3517 0.0175781 38.5649 0.0175781 43.7138V56.4905H18.9164V69.4586H66.83V56.4905H85.7288V43.7138Z" fill="#EAE8E8"/>
<g id="Group_2">
<path id="Vector_2" d="M52.9349 36.4326H49.2313C56.8714 36.4326 63.1262 42.5719 63.1262 50.0847V69.4603H66.8298V50.0847C66.8298 42.5715 60.575 36.4326 52.9349 36.4326ZM31.3374 69.4603V52.9464C31.3374 52.5503 31.1887 52.1704 30.9242 51.8903C30.6596 51.6103 30.3007 51.4529 29.9265 51.4529C29.5523 51.4529 29.1935 51.6103 28.9289 51.8903C28.6643 52.1704 28.5156 52.5503 28.5156 52.9464V69.4603H31.3374Z" fill="#DDD7D7"/>
<path id="Vector_3" d="M57.2212 69.4595V52.9456C57.2212 52.5495 57.0725 52.1696 56.8079 51.8896C56.5434 51.6095 56.1845 51.4521 55.8103 51.4521C55.4361 51.4521 55.0772 51.6095 54.8127 51.8896C54.5481 52.1696 54.3994 52.5495 54.3994 52.9456V69.4595H57.2212Z" fill="#DDD7D7"/>
</g>
<path id="Vector_4" d="M69.3082 12.4609C71.6633 12.4615 73.9218 13.4521 75.5872 15.2149C77.2525 16.9777 78.1883 19.3684 78.189 21.8613C78.189 27.3715 75.3614 34.3536 69.3082 34.3536C63.0638 34.3536 60.4222 27.0543 60.4222 21.8613C60.4231 19.3675 61.3598 16.9762 63.0262 15.2133C64.6925 13.4504 66.9522 12.4604 69.3082 12.4609ZM16.4423 12.4609C15.2761 12.4608 14.1212 12.7038 13.0436 13.1761C11.9661 13.6485 10.987 14.3409 10.1624 15.2139C9.33766 16.0868 8.68351 17.1232 8.23725 18.2637C7.791 19.4043 7.56138 20.6268 7.56152 21.8613C7.56152 27.3715 10.3833 34.3536 16.4423 34.3536C22.6867 34.3536 25.3231 27.0543 25.3231 21.8613C25.3233 20.6268 25.0937 19.4043 24.6474 18.2637C24.2012 17.1232 23.547 16.0868 22.7223 15.2139C21.8976 14.3409 20.9186 13.6485 19.841 13.1761C18.7635 12.7038 17.6086 12.4608 16.4423 12.4609Z" fill="#FFDDAB"/>
<path id="Vector_5" d="M69.3027 12.4609C68.7704 12.4616 68.2392 12.5127 67.7154 12.6136C69.7616 13.0075 71.6124 14.1488 72.9453 15.8387C74.2782 17.5286 75.0088 19.6599 75.0097 21.8613C75.0097 26.867 72.6756 33.0862 67.71 34.1824C68.2342 34.2969 68.7681 34.354 69.3034 34.3528C75.3566 34.3528 78.1842 27.3709 78.1842 21.8606C78.1834 19.3676 77.2474 16.977 75.5819 15.2144C73.9164 13.4517 71.6578 12.4613 69.3027 12.4609ZM16.4369 12.4609C15.9045 12.4616 15.3733 12.5126 14.8496 12.6135C16.896 13.0068 18.747 14.148 20.0799 15.838C21.4128 17.5281 22.143 19.6598 22.1432 21.8613C22.1432 26.5885 19.9579 33.0606 14.8551 34.1833C15.3754 34.2975 15.9055 34.3546 16.4369 34.3536C22.6813 34.3536 25.3177 27.0543 25.3177 21.8613C25.3178 20.6268 25.0882 19.4043 24.6419 18.2637C24.1957 17.1232 23.5415 16.0868 22.7168 15.2139C21.8921 14.3409 20.9131 13.6485 19.8355 13.1761C18.758 12.7038 17.6031 12.4608 16.4369 12.4609Z" fill="#F9CE95"/>
<path id="Vector_6" d="M42.8733 69.4601L38.0195 64.2127L41.0021 41.9752C40.434 41.6198 39.9842 41.0864 39.7147 40.4487C39.4253 39.7811 39.477 38.0082 39.8544 37.3899C40.0355 37.0922 40.2852 36.8481 40.58 36.6806C40.8748 36.5131 41.205 36.4277 41.5395 36.4324H44.2068C44.5416 36.4264 44.8722 36.5113 45.1672 36.6789C45.4622 36.8465 45.7118 37.0913 45.8921 37.3899C46.2746 38.0082 46.3263 39.7811 46.0367 40.4487C45.7638 41.0856 45.3127 41.6185 44.7445 41.9752L47.7322 64.2127L42.8733 69.4601Z" fill="#AD1E1E"/>
<path id="Vector_7" d="M42.8684 36.4312C47.3865 36.4312 51.2944 32.3218 53.1855 26.3466C56.344 26.002 58.3705 17.9584 55.8168 17.1211C55.5795 17.0356 55.3269 17.008 55.0781 17.0403C54.8292 17.0726 54.5905 17.1641 54.3797 17.3078C56.556 7.58447 54.7777 5.8444 51.9089 4.55853C49.4328 1.653 45.8918 0.000488281 42.8677 0.000488281C36.6951 0.000488281 28.363 6.87862 31.3558 17.3078C31.1452 17.1638 30.9065 17.0722 30.6576 17.0399C30.4087 17.0075 30.1561 17.0353 29.9188 17.1211C27.3704 17.9584 29.3915 26.002 32.5552 26.3466C34.4423 32.3218 38.355 36.4312 42.8677 36.4312H42.8684Z" fill="#FFDDAB"/>
<path id="Vector_8" d="M76.2018 34.3517H62.4051C60.0783 34.3412 57.8221 35.1973 56.0315 36.7701L56.0285 36.7783C62.193 38.1695 66.83 43.6152 66.83 50.083V56.4905H85.7288V43.7138C85.7288 38.5649 81.4433 34.3517 76.2018 34.3517ZM18.9164 50.083C18.9164 43.615 23.5568 38.1622 29.7273 36.7754L29.7148 36.7701C27.9241 35.1973 25.6679 34.3412 23.3411 34.3517H9.53928C4.30314 34.3517 0.0175781 38.5649 0.0175781 43.7138V56.4905H18.9164V50.083Z" fill="#7DA8FF"/>
<path id="Vector_9" d="M18.9176 56.4917V50.0842C18.9176 43.6162 23.558 38.1634 29.7285 36.7766L29.716 36.7713C29.5832 36.6543 29.4475 36.5412 29.3088 36.4321H29.1035C21.4634 36.4321 15.2139 42.5768 15.2139 50.0842V56.4917H18.9176ZM66.8312 56.4917V50.0842C66.8312 43.6162 62.1907 38.1634 56.0203 36.7766L56.0329 36.7713C56.1656 36.6543 56.3014 36.5412 56.4401 36.4321H56.6452C64.2855 36.4321 70.535 42.5768 70.535 50.0842V56.4917H66.8312Z" fill="#5090EF"/>
<path id="Vector_10" d="M46.0366 40.4487C46.3262 39.7811 46.2745 38.0082 45.892 37.3899C45.7117 37.0913 45.4622 36.8465 45.1671 36.6789C44.8721 36.5113 44.5415 36.4264 44.2067 36.4324H41.5394C41.2049 36.4277 40.8747 36.5131 40.5799 36.6806C40.2852 36.8481 40.0355 37.0922 39.8543 37.3899C39.4769 38.0082 39.4252 39.7811 39.7148 40.4487C39.9842 41.0864 40.4341 41.6198 41.0022 41.9752H44.7451C45.3131 41.6183 45.7639 41.0855 46.0366 40.4487Z" fill="#D22E2E"/>
<path id="Vector_11" d="M51.9093 4.55804C49.4332 1.65251 45.8922 0 42.8681 0C36.6955 0 28.3634 6.87813 31.3562 17.3073C36.0396 10.8791 46.2024 14.6695 50.3778 10.008C51.1899 13.7581 52.645 15.6832 54.3801 17.3073C56.5564 7.58398 54.7781 5.84391 51.9093 4.55804Z" fill="#7C6359"/>
<path id="Vector_12" d="M55.8202 17.1229C55.5338 17.0268 55.2293 17.0072 54.934 17.0659C54.7537 17.1552 54.5699 17.2362 54.383 17.3086C53.5713 16.5706 52.8525 15.7253 52.2441 14.7935C52.3299 18.4666 51.8084 22.614 50.3671 26.348C48.6755 31.6908 45.3712 35.5393 41.4609 36.2944C41.9263 36.3855 42.3986 36.4317 42.8718 36.4326C47.3898 36.4326 51.2978 32.3231 53.1889 26.348C56.3477 26.0037 58.3737 17.9602 55.8202 17.1229Z" fill="#F9CE95"/>
<path id="Vector_13" d="M54.3848 17.3086C54.5715 17.2358 54.7553 17.1549 54.9357 17.0659C54.7382 17.1057 54.5506 17.1883 54.3848 17.3086Z" fill="#604C42"/>
<path id="Vector_14" d="M51.9093 4.55804C49.4332 1.65251 45.8922 0 42.8682 0C42.3918 0.00139648 41.9162 0.0401462 41.4453 0.11593C44.1152 0.531485 46.9848 2.09084 49.0875 4.55897C50.7713 5.31373 52.1194 9.57457 52.2412 14.7931C52.8496 15.7249 53.5684 16.5702 54.3801 17.3083C56.5564 7.58397 54.7782 5.84391 51.9093 4.55804Z" fill="#604C42"/>
</g>
</svg>
