<svg width="13" height="15" viewBox="0 0 13 15" fill="none" xmlns="http://www.w3.org/2000/svg">
<g id="Group">
<path id="Vector" d="M12.7265 10.4535C12.7088 9.91178 12.5883 9.60028 12.3357 9.44346C11.5009 8.92519 10.0818 9.51548 9.20371 9.97106C9.03587 9.75152 8.7476 9.63181 8.44523 9.6702L7.27147 9.82023C7.07052 9.84596 6.86205 9.81739 6.66861 9.73765C6.44261 9.64449 6.02186 9.47119 5.34666 9.54523C4.13391 9.67829 4.16842 9.77358 3.83431 9.92807C3.75755 9.96132 3.49499 10.0023 3.19347 10.0318C3.06071 9.74402 2.76059 9.54258 2.41224 9.54258H0.854144C0.383169 9.54258 0 9.91057 0 10.3629V14.0791C0 14.5314 0.383169 14.8994 0.854144 14.8994H2.41224C2.80444 14.8994 3.13553 14.6441 3.23538 14.2976L3.87229 14.1863C4.05157 14.161 3.82856 14.1592 7.66096 14.4111C8.72795 14.4813 9.75381 14.0897 10.4291 13.4176C12.5572 11.3264 12.1977 11.6787 12.2393 11.6387C12.5677 11.3115 12.7407 10.8906 12.7265 10.4535ZM2.41222 14.0791H0.854144V10.3629H2.41224V14.0791H2.41222ZM11.6254 11.0684C9.49728 13.1596 9.85696 12.8071 9.81531 12.8471C9.29451 13.3661 8.51083 13.6448 7.71924 13.5928L4.27599 13.3666C3.9052 13.3259 3.68136 13.386 3.26639 13.4584V10.8502C3.59723 10.819 3.99699 10.7634 4.20418 10.6675C4.52152 10.5209 4.409 10.4738 5.44357 10.3603C5.89354 10.3109 6.15727 10.4196 6.33182 10.4916C6.66673 10.6296 7.03057 10.6786 7.38419 10.6334L8.52162 10.488C8.56288 10.625 8.57281 10.8105 8.51883 10.926C8.49147 10.9845 8.45061 11.0199 8.3822 11.0445C7.90886 11.2145 7.90886 11.2145 5.87736 11.4964C5.64393 11.5288 5.48204 11.7368 5.51578 11.961C5.54963 12.186 5.76704 12.3407 5.99953 12.3083C8.08214 12.0192 8.12194 12.0137 8.68135 11.8128C9.10241 11.6616 9.3822 11.3069 9.40754 10.7991C10.1969 10.3583 11.3607 9.9012 11.8242 10.1072C11.8396 10.1543 11.8657 10.2638 11.8727 10.4793C11.8797 10.6928 11.7919 10.902 11.6254 11.0684ZM7.28869 8.71973C9.5337 8.71973 11.3601 6.96565 11.3601 4.80957C11.3601 2.65349 9.5337 0.899414 7.28869 0.899414C5.04369 0.899414 3.21727 2.65349 3.21727 4.80957C3.21727 6.96565 5.04369 8.71973 7.28869 8.71973ZM7.28869 1.71973C9.06272 1.71973 10.506 3.10581 10.506 4.80957C10.506 6.51333 9.06272 7.89941 7.28869 7.89941C5.51467 7.89941 4.07142 6.51333 4.07142 4.80957C4.07142 3.10581 5.51467 1.71973 7.28869 1.71973Z" fill="#FF7E68"/>
<path id="Vector_2" d="M6.19235 6.5508C6.44802 6.71145 6.64297 6.78607 6.86473 6.81866V6.89096C6.86473 7.11747 7.05594 7.30111 7.2918 7.30111C7.52769 7.30111 7.71887 7.11747 7.71887 6.89096V6.77464C8.21644 6.61413 8.5345 6.18844 8.60804 5.76814C8.70959 5.18788 8.38237 4.66381 7.79378 4.46401C7.49529 4.36267 7.16593 4.24088 6.9867 4.10586C6.9592 4.08516 6.93884 4.01784 6.95533 3.93392C6.96353 3.89214 7.00145 3.7525 7.14486 3.71102C7.50947 3.60555 7.67292 3.801 7.8169 3.87336C8.02597 3.9783 8.28397 3.90067 8.39325 3.69991C8.49987 3.50405 8.42548 3.26334 8.22766 3.1543C8.08126 3.05881 7.94479 2.97101 7.71893 2.91006V2.84668C7.71893 2.62016 7.52772 2.43652 7.29186 2.43652C7.056 2.43652 6.86479 2.62016 6.86479 2.84668V2.93664C6.03852 3.20414 5.83688 4.28225 6.45961 4.75139C6.73535 4.95907 7.12701 5.10773 7.50915 5.23745C7.76323 5.3237 7.78891 5.49971 7.76574 5.63219C7.73314 5.81834 7.57008 6.01948 7.28901 6.02126C6.975 6.0238 6.89314 6.01093 6.65996 5.86439C6.46257 5.74036 6.1979 5.79349 6.06875 5.98309C5.93963 6.17258 5.99495 6.42677 6.19235 6.5508Z" fill="#FF7E68"/>
</g>
</svg>
