<svg width="12" height="12" viewBox="0 0 12 12" fill="none" xmlns="http://www.w3.org/2000/svg">
<g id="Group">
<g id="Group_2">
<path id="Vector" d="M9.70083 0V0.734695H10.5855L8.85964 2.26772C8.24866 1.68202 7.3967 1.3178 6.45554 1.3178C5.18952 1.3178 4.08479 1.97667 3.51116 2.94752C3.46179 2.94543 3.41237 2.94435 3.36295 2.94429C1.50861 2.94429 0 4.35755 0 6.09471C0 7.70759 1.30058 9.04104 2.9708 9.22357V10.1999H1.79675V10.9346H2.97085V12H3.75512V10.9346H4.98046V10.1999H3.75512V9.22355C4.85464 9.10338 5.79385 8.48449 6.30735 7.61536C6.35649 7.61737 6.40585 7.61859 6.45552 7.61859C8.30988 7.61859 9.81849 6.20534 9.81849 4.4682C9.81849 3.87788 9.64413 3.32505 9.34136 2.85232L11.2157 1.18737V2.09986H12V0H9.70083ZM3.363 8.51039C1.94111 8.51039 0.784313 7.42671 0.784313 6.09466C0.784313 4.81453 1.85274 3.76399 3.19805 3.68405C3.12784 3.94024 3.09241 4.2037 3.09259 4.4682C3.09259 5.88532 4.09665 7.08677 5.4733 7.48137C5.0063 8.10323 4.2345 8.51039 3.363 8.51039ZM5.82599 6.81094C4.70743 6.54703 3.87688 5.59683 3.87688 4.4682C3.87688 4.21891 3.91741 3.97833 3.99259 3.75192C5.11116 4.01583 5.94171 4.96605 5.94171 6.09469C5.94171 6.34397 5.90115 6.58453 5.82599 6.81094ZM6.62052 6.87879C6.69072 6.62261 6.72615 6.35915 6.72597 6.09466C6.72597 4.67754 5.72192 3.47609 4.34528 3.08147C4.81228 2.45963 5.58411 2.05245 6.45559 2.05245C7.87751 2.05245 9.0343 3.13613 9.0343 4.46817C9.03425 5.7483 7.96582 6.79887 6.62052 6.87879Z" fill="#FF7E68"/>
</g>
</g>
</svg>
