<svg width="40" height="37" viewBox="0 0 40 37" fill="none" xmlns="http://www.w3.org/2000/svg">
<g id="setting">
<path id="Rectangle 30461" d="M32 0H8C3.58172 0 0 3.31309 0 7.4V29.6C0 33.6869 3.58172 37 8 37H32C36.4183 37 40 33.6869 40 29.6V7.4C40 3.31309 36.4183 0 32 0Z" fill="#F7F7F7"/>
<g id="setting_2">
<path id="XMLID_111_" d="M20.0264 16.458C19.3258 16.458 18.641 16.6657 18.0585 17.0549C17.4761 17.4441 17.0221 17.9973 16.754 18.6445C16.4859 19.2918 16.4158 20.0039 16.5524 20.691C16.6891 21.3781 17.0264 22.0092 17.5218 22.5046C18.0172 22.9999 18.6483 23.3373 19.3354 23.4739C20.0224 23.6106 20.7346 23.5405 21.3818 23.2724C22.0291 23.0043 22.5822 22.5503 22.9714 21.9678C23.3606 21.3854 23.5684 20.7005 23.5684 20C23.5673 19.0609 23.1938 18.1606 22.5298 17.4966C21.8658 16.8326 20.9654 16.4591 20.0264 16.458ZM20.0264 22.125C19.6061 22.125 19.1952 22.0004 18.8458 21.7669C18.4963 21.5334 18.224 21.2015 18.0631 20.8132C17.9023 20.4249 17.8602 19.9977 17.9422 19.5854C18.0242 19.1732 18.2266 18.7946 18.5238 18.4974C18.821 18.2002 19.1996 17.9978 19.6118 17.9158C20.024 17.8338 20.4513 17.8759 20.8396 18.0368C21.2279 18.1976 21.5598 18.47 21.7932 18.8194C22.0267 19.1689 22.1514 19.5797 22.1514 20C22.1506 20.5633 21.9264 21.1034 21.5281 21.5017C21.1298 21.9001 20.5897 22.1242 20.0264 22.125Z" fill="#8A8A8A"/>
<path id="XMLID_114_" d="M28.1926 21.442L27.8196 21.227C27.6043 21.1026 27.4255 20.9238 27.3011 20.7084C27.1768 20.493 27.1114 20.2487 27.1114 20C27.1114 19.7513 27.1768 19.507 27.3011 19.2917C27.4255 19.0763 27.6043 18.8974 27.8196 18.773L28.1926 18.558C28.6802 18.2765 29.036 17.8129 29.1819 17.2691C29.3278 16.7253 29.2518 16.1458 28.9706 15.658L28.2626 14.431C27.9805 13.9441 27.5169 13.5888 26.9733 13.443C26.4298 13.2971 25.8506 13.3727 25.3626 13.653L24.9896 13.868C24.7742 13.9923 24.5299 14.0576 24.2813 14.0576C24.0326 14.0575 23.7884 13.992 23.5731 13.8677C23.3577 13.7434 23.1789 13.5646 23.0545 13.3493C22.9302 13.1339 22.8647 12.8897 22.8646 12.641V12.211C22.8647 11.9314 22.8098 11.6545 22.7028 11.3961C22.5959 11.1378 22.4391 10.903 22.2413 10.7053C22.0436 10.5076 21.8089 10.3508 21.5505 10.2438C21.2921 10.1369 21.0152 10.0819 20.7356 10.082H19.3186C18.7553 10.0828 18.2152 10.307 17.8169 10.7053C17.4185 11.1036 17.1944 11.6437 17.1936 12.207V12.638C17.1936 12.8868 17.1281 13.1312 17.0037 13.3467C16.8793 13.5622 16.7004 13.7411 16.4849 13.8654C16.2694 13.9898 16.025 14.0552 15.7762 14.0552C15.5274 14.0551 15.283 13.9895 15.0676 13.865L14.6956 13.65C14.2076 13.37 13.6285 13.2946 13.085 13.4404C12.5415 13.5862 12.0779 13.9413 11.7956 14.428L11.0836 15.654C10.8025 16.1418 10.7265 16.7213 10.8724 17.2651C11.0182 17.8089 11.3741 18.2725 11.8616 18.554L12.2346 18.769C12.4499 18.8934 12.6288 19.0723 12.7531 19.2877C12.8774 19.503 12.9428 19.7473 12.9428 19.996C12.9428 20.2447 12.8774 20.489 12.7531 20.7044C12.6288 20.9198 12.4499 21.0986 12.2346 21.223L11.8616 21.438C11.3741 21.7196 11.0182 22.1832 10.8724 22.727C10.7265 23.2708 10.8025 23.8502 11.0836 24.338L11.7916 25.565C12.0739 26.0518 12.5375 26.4069 13.081 26.5527C13.6245 26.6985 14.2036 26.6231 14.6916 26.343L15.0646 26.128C15.28 26.0038 15.5243 25.9384 15.7729 25.9385C16.0216 25.9385 16.2658 26.004 16.4812 26.1284C16.6965 26.2527 16.8753 26.4315 16.9997 26.6468C17.124 26.8621 17.1895 27.1064 17.1896 27.355V27.785C17.1904 28.3484 17.4145 28.8884 17.8129 29.2868C18.2112 29.6851 18.7513 29.9092 19.3146 29.91H20.7356C21.299 29.9092 21.839 29.6851 22.2373 29.2868C22.6357 28.8884 22.8598 28.3484 22.8606 27.785V27.362C22.8607 27.1134 22.9262 26.8691 23.0505 26.6538C23.1749 26.4385 23.3537 26.2597 23.5691 26.1354C23.7844 26.011 24.0286 25.9455 24.2773 25.9455C24.5259 25.9454 24.7702 26.0108 24.9856 26.135L25.3586 26.35C25.8467 26.6298 26.4257 26.7051 26.9691 26.5593C27.5125 26.4135 27.9761 26.0586 28.2586 25.572L28.9666 24.345C29.1065 24.1036 29.1974 23.837 29.2342 23.5604C29.271 23.2839 29.2529 23.0028 29.181 22.7332C29.1091 22.4636 28.9849 22.2108 28.8153 21.9893C28.6457 21.7677 28.4341 21.5818 28.1926 21.442ZM27.7436 23.637L27.0356 24.864C26.9891 24.9447 26.9272 25.0153 26.8533 25.072C26.7795 25.1286 26.6952 25.1702 26.6053 25.1942C26.5154 25.2183 26.4216 25.2244 26.3294 25.2122C26.2371 25.1999 26.1482 25.1697 26.0676 25.123L25.6946 24.908C25.2638 24.6593 24.7751 24.5284 24.2777 24.5283C23.7802 24.5283 23.2916 24.6593 22.8607 24.908C22.4299 25.1566 22.0722 25.5144 21.8234 25.9451C21.5747 26.3759 21.4437 26.8646 21.4436 27.362V27.793C21.4431 27.9806 21.3683 28.1604 21.2357 28.2931C21.103 28.4257 20.9232 28.5005 20.7356 28.501H19.3186C19.131 28.5005 18.9512 28.4257 18.8186 28.2931C18.6859 28.1604 18.6111 27.9806 18.6106 27.793V27.362C18.6106 26.8646 18.4796 26.3759 18.2308 25.9451C17.982 25.5144 17.6243 25.1566 17.1935 24.908C16.7627 24.6593 16.274 24.5283 15.7765 24.5283C15.2791 24.5284 14.7904 24.6593 14.3596 24.908L13.9866 25.123C13.9061 25.1697 13.8171 25.1999 13.7248 25.2122C13.6326 25.2244 13.5388 25.2183 13.4489 25.1942C13.359 25.1702 13.2747 25.1286 13.2009 25.072C13.127 25.0153 13.0651 24.9447 13.0186 24.864L12.3106 23.637C12.264 23.5565 12.2337 23.4675 12.2215 23.3753C12.2093 23.283 12.2154 23.1892 12.2394 23.0993C12.2635 23.0094 12.305 22.9251 12.3617 22.8513C12.4183 22.7775 12.489 22.7155 12.5696 22.669L12.9426 22.454C13.3733 22.2053 13.7309 21.8475 13.9795 21.4168C14.2282 20.986 14.3591 20.4974 14.3591 20C14.3591 19.5027 14.2282 19.0141 13.9795 18.5833C13.7309 18.1525 13.3733 17.7948 12.9426 17.546L12.5696 17.331C12.407 17.2369 12.2884 17.0821 12.2398 16.9006C12.1912 16.7191 12.2167 16.5258 12.3106 16.363L13.0186 15.136C13.1127 14.9734 13.2675 14.8548 13.449 14.8062C13.6305 14.7577 13.8239 14.7831 13.9866 14.877L14.3596 15.092C14.7904 15.3408 15.2791 15.4717 15.7765 15.4717C16.274 15.4717 16.7627 15.3408 17.1935 15.0921C17.6243 14.8434 17.982 14.4857 18.2308 14.0549C18.4796 13.6241 18.6106 13.1355 18.6106 12.638V12.207C18.6111 12.0194 18.6859 11.8396 18.8186 11.707C18.9512 11.5743 19.131 11.4996 19.3186 11.499H20.7356C20.9232 11.4996 21.103 11.5743 21.2357 11.707C21.3683 11.8396 21.4431 12.0194 21.4436 12.207V12.638C21.4437 13.1355 21.5747 13.6241 21.8234 14.0549C22.0722 14.4857 22.4299 14.8434 22.8607 15.0921C23.2916 15.3408 23.7802 15.4717 24.2777 15.4717C24.7751 15.4717 25.2638 15.3408 25.6946 15.092L26.0676 14.877C26.1482 14.8304 26.2371 14.8001 26.3294 14.7879C26.4216 14.7757 26.5154 14.7818 26.6053 14.8058C26.6952 14.8299 26.7795 14.8714 26.8533 14.9281C26.9272 14.9847 26.9891 15.0554 27.0356 15.136L27.7436 16.363C27.7902 16.4436 27.8205 16.5325 27.8327 16.6248C27.845 16.7171 27.8389 16.8108 27.8148 16.9007C27.7908 16.9906 27.7492 17.0749 27.6926 17.1488C27.6359 17.2226 27.5652 17.2845 27.4846 17.331L27.1116 17.546C26.6809 17.7948 26.3233 18.1525 26.0747 18.5833C25.826 19.0141 25.6952 19.5027 25.6952 20C25.6952 20.4974 25.826 20.986 26.0747 21.4168C26.3233 21.8475 26.6809 22.2053 27.1116 22.454L27.4846 22.669C27.5652 22.7155 27.6359 22.7775 27.6926 22.8513C27.7492 22.9251 27.7908 23.0094 27.8148 23.0993C27.8389 23.1892 27.845 23.283 27.8327 23.3753C27.8205 23.4675 27.7902 23.5565 27.7436 23.637Z" fill="#8A8A8A"/>
</g>
</g>
</svg>
