<svg width="73" height="70" viewBox="0 0 73 70" fill="none" xmlns="http://www.w3.org/2000/svg">
<g id="Group" opacity="0.43">
<path id="Vector" d="M54.1462 36.5886L43.9951 26.3726L47.0712 23.2769L57.2223 33.4929C58.0717 34.3477 58.0717 35.7338 57.2223 36.5886C56.3729 37.4435 54.9956 37.4435 54.1462 36.5886Z" fill="#454045"/>
<path id="Vector_2" d="M36.2668 30.4024C44.3268 30.4024 50.8608 23.8267 50.8608 15.7151C50.8608 7.60356 44.3268 1.02783 36.2668 1.02783C28.2068 1.02783 21.6729 7.60356 21.6729 15.7151C21.6729 23.8267 28.2068 30.4024 36.2668 30.4024Z" fill="#DD636E"/>
<path id="Vector_3" d="M40.1854 25.202C45.3988 23.0309 47.8762 17.0177 45.7189 11.771C43.5616 6.52433 37.5865 4.03109 32.3732 6.20219C27.1598 8.37328 24.6824 14.3866 26.8397 19.6332C28.997 24.8799 34.9721 27.3731 40.1854 25.202Z" fill="#BED8FB"/>
<path id="Vector_4" d="M36.2653 5.43701C35.5138 5.43701 34.7819 5.52141 34.0762 5.67724C38.6604 6.68878 42.1029 10.8055 42.1029 15.7182C42.1029 20.6309 38.6603 24.7476 34.0762 25.7591C34.7951 25.9184 35.5291 25.9989 36.2653 25.9993C41.8983 25.9993 46.4811 21.3872 46.4811 15.7182C46.4811 10.0492 41.8983 5.43701 36.2653 5.43701Z" fill="#9DC6FB"/>
<path id="Vector_5" d="M13.5482 23.4997H2.97297C1.33108 23.4997 0 22.1602 0 20.5079V2.99198C0 1.33959 1.33108 0 2.97297 0H13.5482C15.1901 0 16.5212 1.33959 16.5212 2.99198V20.5079C16.521 22.1602 15.1901 23.4997 13.5482 23.4997Z" fill="#A2AAE2"/>
<path id="Vector_6" d="M13.5492 0H9.1709C10.8128 0 12.1439 1.33959 12.1439 2.99198V20.5079C12.1439 22.1602 10.8128 23.4998 9.1709 23.4998H13.549C15.1909 23.4998 16.522 22.1602 16.522 20.5079V2.99198C16.522 1.33959 15.1911 0 13.5492 0Z" fill="#8993DA"/>
<g id="Group_2">
<path id="Vector_7" d="M5.05174 8.41443H8.75158C9.03337 8.41443 9.30362 8.30177 9.50287 8.10125C9.70213 7.90072 9.81406 7.62874 9.81406 7.34515C9.81406 7.06157 9.70213 6.78959 9.50287 6.58906C9.30362 6.38853 9.03337 6.27588 8.75158 6.27588H5.05174C4.76995 6.27588 4.49971 6.38853 4.30045 6.58906C4.1012 6.78959 3.98926 7.06157 3.98926 7.34515C3.98926 7.62874 4.1012 7.90072 4.30045 8.10125C4.49971 8.30177 4.76995 8.41443 5.05174 8.41443ZM11.724 10.682H5.05174C4.76995 10.682 4.49971 10.7947 4.30045 10.9952C4.1012 11.1957 3.98926 11.4677 3.98926 11.7513C3.98926 12.0349 4.1012 12.3068 4.30045 12.5074C4.49971 12.7079 4.76995 12.8206 5.05174 12.8206H11.724C12.0058 12.8206 12.276 12.7079 12.4753 12.5074C12.6745 12.3068 12.7865 12.0349 12.7865 11.7513C12.7865 11.4677 12.6745 11.1957 12.4753 10.9952C12.276 10.7947 12.0058 10.682 11.724 10.682ZM10.4943 15.0883H5.05174C4.76995 15.0883 4.49971 15.2009 4.30045 15.4015C4.1012 15.602 3.98926 15.874 3.98926 16.1576C3.98926 16.4411 4.1012 16.7131 4.30045 16.9136C4.49971 17.1142 4.76995 17.2268 5.05174 17.2268H10.4942C10.776 17.2268 11.0462 17.1142 11.2455 16.9137C11.4448 16.7132 11.5567 16.4412 11.5567 16.1576C11.5568 15.874 11.4448 15.6021 11.2456 15.4015C11.0464 15.201 10.7761 15.0883 10.4943 15.0883Z" fill="#ECF4FF"/>
</g>
<path id="Vector_8" d="M69.556 23.4997H58.9808C57.3389 23.4997 56.0078 22.1601 56.0078 20.5077V2.99198C56.0078 1.33959 57.3389 0 58.9808 0H69.556C71.1979 0 72.529 1.33959 72.529 2.99198V20.5079C72.529 22.1602 71.1979 23.4997 69.556 23.4997Z" fill="#A2AAE2"/>
<path id="Vector_9" d="M69.5559 0H65.1777C66.8196 0 68.1507 1.33959 68.1507 2.99198V20.5079C68.1507 22.1602 66.8196 23.4998 65.1777 23.4998H69.5559C71.1978 23.4998 72.5288 22.1602 72.5288 20.5079V2.99198C72.5288 1.33959 71.1978 0 69.5559 0Z" fill="#8993DA"/>
<g id="Group_3">
<path id="Vector_10" d="M61.0607 8.41443H64.7605C65.3474 8.41443 65.823 7.93568 65.823 7.34515C65.823 6.75463 65.3474 6.27588 64.7605 6.27588H61.0607C60.4738 6.27588 59.9982 6.75463 59.9982 7.34515C59.9982 7.93568 60.4738 8.41443 61.0607 8.41443ZM67.7328 10.682H61.0605C60.4736 10.682 59.998 11.1608 59.998 11.7513C59.998 12.3418 60.4736 12.8206 61.0605 12.8206H67.7328C68.3197 12.8206 68.7953 12.3418 68.7953 11.7513C68.7953 11.1608 68.3197 10.682 67.7328 10.682ZM66.5033 15.0883H61.0607C60.4738 15.0883 59.9982 15.567 59.9982 16.1576C59.9982 16.7481 60.4738 17.2268 61.0607 17.2268H66.5033C66.7851 17.2268 67.0553 17.1142 67.2546 16.9136C67.4538 16.7131 67.5657 16.4411 67.5657 16.1576C67.5657 15.874 67.4538 15.602 67.2546 15.4015C67.0553 15.2009 66.7851 15.0883 66.5033 15.0883Z" fill="#ECF4FF"/>
</g>
<path id="Vector_11" d="M70.4851 69.0301H54.1399C53.0115 69.0301 52.0967 68.1095 52.0967 66.9738V58.7489C52.0967 55.5043 54.7102 52.874 57.9342 52.874H66.6906C69.9146 52.874 72.5282 55.5043 72.5282 58.7489V66.9738C72.5283 68.1094 71.6136 69.0301 70.4851 69.0301Z" fill="#5490F9"/>
<path id="Vector_12" d="M66.6994 52.874H62.3213C65.5453 52.874 68.1588 55.5043 68.1588 58.7489V66.9738C68.1588 68.1094 67.2441 69.0301 66.1156 69.0301H70.4938C71.6221 69.0301 72.537 68.1095 72.537 66.9738V58.7489C72.537 55.5043 69.9234 52.874 66.6994 52.874Z" fill="#4A81F6"/>
<path id="Vector_13" d="M60.3878 52.874H64.2453L65.2276 60.7149C65.2984 61.2801 65.0746 61.842 64.6356 62.2015L62.8799 63.6391C62.7207 63.7695 62.5218 63.8406 62.3165 63.8406C62.1113 63.8406 61.9123 63.7695 61.7531 63.6391L59.9975 62.2015C59.7815 62.0247 59.6138 61.7954 59.5103 61.5354C59.4067 61.2753 59.3706 60.9929 59.4055 60.7149L60.3878 52.874Z" fill="#ECF4FF"/>
<path id="Vector_14" d="M57.418 48.8385V45.9515C57.418 43.2315 62.3115 42.4976 62.3115 42.4976C62.3115 42.4976 67.205 43.2315 67.205 45.9515V48.82C67.205 51.5451 65.0099 53.754 62.3023 53.754C59.6047 53.7542 57.418 51.5533 57.418 48.8385Z" fill="#FFDDCE"/>
<path id="Vector_15" d="M62.3123 42.4976C62.3123 42.4976 62.8277 43.5326 62.8277 45.4603V48.82C62.8277 50.7521 61.7235 52.4237 60.1162 53.2337C60.7948 53.5767 61.5437 53.7549 62.3031 53.7542C65.0108 53.7542 67.2058 51.5451 67.2058 48.8201V45.9516L62.3123 42.4976Z" fill="#FFCBBE"/>
<path id="Vector_16" d="M57.418 45.4609V45.9521H67.2051V45.4609C67.2051 42.741 65.0141 40.5361 62.3116 40.5361C59.6089 40.536 57.418 42.741 57.418 45.4609Z" fill="#845C52"/>
<path id="Vector_17" d="M62.3141 40.5361C61.5541 40.5354 60.8044 40.7136 60.125 41.0567C61.7282 41.8653 62.8295 43.5332 62.8295 45.4611V45.9522H67.2076V45.4611C67.2078 42.7411 65.0168 40.5361 62.3141 40.5361Z" fill="#734D45"/>
<path id="Vector_18" d="M18.3884 69.0301H2.04322C0.914726 69.0301 0 68.1094 0 66.9738V58.7489C0 55.5043 2.61356 52.874 5.83756 52.874H14.594C17.818 52.874 20.4315 55.5043 20.4315 58.7489V66.9738C20.4315 68.1094 19.5168 69.0301 18.3884 69.0301Z" fill="#A2AAE2"/>
<path id="Vector_19" d="M14.591 52.874H10.2129C13.4369 52.874 16.0504 55.5043 16.0504 58.7489V66.9738C16.0504 68.1094 15.1357 69.0301 14.0072 69.0301H18.3854C19.5137 69.0301 20.4286 68.1095 20.4286 66.9738V58.7489C20.4286 55.5043 17.815 52.874 14.591 52.874Z" fill="#8993DA"/>
<path id="Vector_20" d="M8.29123 52.874H12.1487L13.131 60.7149C13.2019 61.2801 12.978 61.842 12.539 62.2015L10.7834 63.6389C10.6242 63.7693 10.4252 63.8405 10.2199 63.8405C10.0147 63.8405 9.81566 63.7693 9.65645 63.6389L7.9008 62.2014C7.68484 62.0246 7.51717 61.7953 7.41359 61.5352C7.31002 61.2751 7.27395 60.9928 7.30879 60.7148L8.29123 52.874Z" fill="#ECF4FF"/>
<path id="Vector_21" d="M5.32129 48.8385V45.9515C5.32129 43.2315 10.2148 42.4976 10.2148 42.4976C10.2148 42.4976 15.1083 43.2315 15.1083 45.9515V48.82C15.1083 51.5451 12.9132 53.754 10.2056 53.754C7.50816 53.7542 5.32129 51.5533 5.32129 48.8385Z" fill="#FFDDCE"/>
<path id="Vector_22" d="M10.2146 42.4976C10.2146 42.4976 10.73 43.5326 10.73 45.4603V48.82C10.73 50.7521 9.62588 52.4237 8.01855 53.2337C8.69712 53.5767 9.44608 53.7549 10.2054 53.7542C12.9132 53.7542 15.1081 51.5451 15.1081 48.8201V45.9516L10.2146 42.4976Z" fill="#FFCBBE"/>
<path id="Vector_23" d="M5.32129 45.4609V45.9521H15.1084V45.4609C15.1084 42.741 12.9175 40.5361 10.2149 40.5361C7.51227 40.536 5.32129 42.741 5.32129 45.4609Z" fill="#845C52"/>
<path id="Vector_24" d="M10.2175 40.5361C9.45739 40.5354 8.70769 40.7136 8.02832 41.0567C9.63153 41.8653 10.7328 43.5332 10.7328 45.4611V45.9522H15.111V45.4611C15.111 42.7411 12.92 40.5361 10.2175 40.5361Z" fill="#734D45"/>
<path id="Vector_25" d="M44.4431 69.0301H28.0979C26.9696 69.0301 26.0547 68.1095 26.0547 66.9738V58.7489C26.0547 55.5043 28.6683 52.874 31.8922 52.874H40.6487C43.8726 52.874 46.4862 55.5043 46.4862 58.7489V66.9738C46.4864 68.1094 45.5715 69.0301 44.4431 69.0301Z" fill="#DD636E"/>
<path id="Vector_26" d="M40.6438 52.874H36.2656C39.4896 52.874 42.1032 55.5043 42.1032 58.7489V66.9738C42.1032 68.1094 41.1885 69.0301 40.06 69.0301H44.4381C45.5664 69.0301 46.4813 68.1095 46.4813 66.9738V58.7489C46.4815 55.5043 43.8679 52.874 40.6438 52.874Z" fill="#DA4A54"/>
<path id="Vector_27" d="M34.3332 52.874H38.1907L39.173 60.7149C39.2439 61.2801 39.02 61.842 38.581 62.2015L36.8254 63.6391C36.6662 63.7694 36.4672 63.8406 36.2619 63.8406C36.0566 63.8406 35.8577 63.7694 35.6984 63.6391L33.9428 62.2015C33.7268 62.0247 33.5592 61.7954 33.4556 61.5354C33.352 61.2753 33.3159 60.9929 33.3508 60.7149L34.3332 52.874Z" fill="#ECF4FF"/>
<path id="Vector_28" d="M31.3779 48.8384V45.9513C31.3779 43.2315 36.2714 42.4976 36.2714 42.4976C36.2714 42.4976 41.1649 43.2315 41.1649 45.9515V48.82C41.1649 51.5451 38.9699 53.754 36.2622 53.754C33.5647 53.754 31.3779 51.5532 31.3779 48.8384Z" fill="#FFDDCE"/>
<path id="Vector_29" d="M36.2713 42.4976C36.2713 42.4976 36.7866 43.5326 36.7866 45.4603V48.82C36.7866 50.7521 35.6825 52.4237 34.0752 53.2337C34.7538 53.5767 35.5027 53.7549 36.2621 53.7542C38.9698 53.7542 41.1648 51.5451 41.1648 48.8201V45.9516L36.2713 42.4976Z" fill="#FFCBBE"/>
<path id="Vector_30" d="M31.3779 45.4609V45.9521H41.1651V45.4609C41.1651 42.741 38.9741 40.5361 36.2716 40.5361C33.5688 40.536 31.3779 42.741 31.3779 45.4609Z" fill="#845C52"/>
<path id="Vector_31" d="M36.2653 40.5361C35.5052 40.5354 34.7555 40.7136 34.0762 41.0567C35.6794 41.8653 36.7807 43.5332 36.7807 45.4611V45.9522H41.1588V45.4611C41.1588 42.7411 38.968 40.5361 36.2653 40.5361Z" fill="#734D45"/>
<path id="Vector_32" d="M41.4979 12.3178C41.2874 12.1293 41.0111 12.0327 40.7298 12.0492C40.4485 12.0657 40.1853 12.1939 39.998 12.4058L35.788 17.1673L32.9996 15.0429C32.8884 14.9581 32.7616 14.8963 32.6266 14.8608C32.4916 14.8253 32.351 14.817 32.2128 14.8362C32.0746 14.8555 31.9415 14.9019 31.8211 14.9729C31.7008 15.0439 31.5955 15.1381 31.5113 15.25C31.4271 15.362 31.3656 15.4895 31.3303 15.6254C31.2951 15.7613 31.2868 15.9028 31.3059 16.0419C31.325 16.181 31.3712 16.3149 31.4417 16.436C31.5123 16.5572 31.6059 16.6631 31.7171 16.7479L35.288 19.4685C35.4723 19.6094 35.6974 19.6855 35.9288 19.6854C36.0788 19.6856 36.2272 19.6538 36.3641 19.592C36.501 19.5302 36.6233 19.4399 36.723 19.327L41.5853 13.8275C41.6781 13.7226 41.7494 13.6003 41.7952 13.4677C41.8411 13.335 41.8605 13.1946 41.8523 13.0544C41.8442 12.9142 41.8087 12.777 41.7479 12.6506C41.6871 12.5242 41.6022 12.4111 41.4979 12.3178Z" fill="#ECF4FF"/>
</g>
</svg>
